<svg width="56" height="56" viewBox="0 0 56 56" fill="none" xmlns="http://www.w3.org/2000/svg">
<path d="M28.0003 53.0833C14.1637 53.0833 2.91699 41.8366 2.91699 28C2.91699 14.1633 14.1637 2.91663 28.0003 2.91663C41.837 2.91663 53.0837 14.1633 53.0837 28C53.0837 41.8366 41.837 53.0833 28.0003 53.0833ZM28.0003 6.41663C16.1003 6.41663 6.41699 16.1 6.41699 28C6.41699 39.9 16.1003 49.5833 28.0003 49.5833C39.9003 49.5833 49.5837 39.9 49.5837 28C49.5837 16.1 39.9003 6.41663 28.0003 6.41663Z" fill="#0245FD"/>
<path d="M33.133 29.7499H20.4863C19.5297 29.7499 18.7363 28.9566 18.7363 27.9999V17.8966C18.7363 16.9399 19.5297 16.1466 20.4863 16.1466H33.133C36.7497 16.1466 39.9463 19.3199 39.9463 22.9599C39.9463 26.6933 36.8897 29.7499 33.133 29.7499ZM22.2363 26.2499H33.133C34.953 26.2499 36.4463 24.7566 36.4463 22.9366C36.4463 21.3966 34.9997 19.6233 33.133 19.6233H22.2363V26.2499Z" fill="#0245FD"/>
<path d="M34.9297 39.8533H20.4863C19.5297 39.8533 18.7363 39.06 18.7363 38.1033V28C18.7363 27.0433 19.5297 26.25 20.4863 26.25H34.9297C39.083 26.25 42.4663 29.3067 42.4663 33.0633C42.4663 36.82 39.083 39.8533 34.9297 39.8533ZM22.2363 36.3533H34.9297C37.1463 36.3533 38.9663 34.86 38.9663 33.04C38.9663 31.22 37.1697 29.7267 34.9297 29.7267H22.2363V36.3533Z" fill="#0245FD"/>
<path d="M29.3301 44.9166C28.3734 44.9166 27.5801 44.1233 27.5801 43.1666V38.1033C27.5801 37.1466 28.3734 36.3533 29.3301 36.3533C30.2867 36.3533 31.0801 37.1466 31.0801 38.1033V43.1666C31.0801 44.1233 30.3101 44.9166 29.3301 44.9166Z" fill="#0245FD"/>
<path d="M23.0303 44.9166C22.0736 44.9166 21.2803 44.1233 21.2803 43.1666V38.1033C21.2803 37.1466 22.0736 36.3533 23.0303 36.3533C23.9869 36.3533 24.7803 37.1466 24.7803 38.1033V43.1666C24.7803 44.1233 23.9869 44.9166 23.0303 44.9166Z" fill="#0245FD"/>
<path d="M29.3301 19.6467C28.3734 19.6467 27.5801 18.8534 27.5801 17.8967V12.8334C27.5801 11.8767 28.3734 11.0834 29.3301 11.0834C30.2867 11.0834 31.0801 11.8767 31.0801 12.8334V17.8967C31.0801 18.8534 30.3101 19.6467 29.3301 19.6467Z" fill="#0245FD"/>
<path d="M23.0303 19.6467C22.0736 19.6467 21.2803 18.8534 21.2803 17.8967V12.8334C21.2803 11.8767 22.0736 11.0834 23.0303 11.0834C23.9869 11.0834 24.7803 11.8767 24.7803 12.8334V17.8967C24.7803 18.8534 23.9869 19.6467 23.0303 19.6467Z" fill="#0245FD"/>
<path d="M25.2935 19.6466H16.4502C15.4935 19.6466 14.7002 18.8533 14.7002 17.8966C14.7002 16.9399 15.4935 16.1466 16.4502 16.1466H25.2935C26.2502 16.1466 27.0435 16.9399 27.0435 17.8966C27.0435 18.8533 26.2735 19.6466 25.2935 19.6466Z" fill="#0245FD"/>
<path d="M25.2935 39.8533H16.4502C15.4935 39.8533 14.7002 39.0599 14.7002 38.1033C14.7002 37.1466 15.4935 36.3533 16.4502 36.3533H25.2935C26.2502 36.3533 27.0435 37.1466 27.0435 38.1033C27.0435 39.0599 26.2735 39.8533 25.2935 39.8533Z" fill="#0245FD"/>
</svg>
