<svg width="56" height="56" viewBox="0 0 56 56" fill="none" xmlns="http://www.w3.org/2000/svg">
<path d="M46.6657 27.4168H9.33235C8.79568 27.4168 8.30568 27.1835 7.97901 26.7635C7.65235 26.3668 7.51235 25.8068 7.62901 25.2935L10.2657 12.6935C11.129 8.61018 12.879 4.85352 19.809 4.85352H36.2123C43.1423 4.85352 44.8923 8.63352 45.7557 12.6935L48.3923 25.3168C48.509 25.8302 48.369 26.3668 48.0423 26.7868C47.6923 27.1835 47.2023 27.4168 46.6657 27.4168ZM11.479 23.9168H44.4957L42.3023 13.4168C41.649 10.3602 40.879 8.35352 36.189 8.35352H19.809C15.119 8.35352 14.349 10.3602 13.6957 13.4168L11.479 23.9168Z" fill="#0145FE"/>
<path d="M46.5724 53.0835H42.1857C38.4057 53.0835 37.6824 50.9135 37.2157 49.4902L36.7491 48.0902C36.1424 46.3169 36.0724 46.0835 33.9724 46.0835H22.0257C19.9257 46.0835 19.7857 46.4802 19.2491 48.0902L18.7824 49.4902C18.2924 50.9369 17.5924 53.0835 13.8124 53.0835H9.42573C7.58239 53.0835 5.80906 52.3135 4.57239 50.9602C3.35906 49.6302 2.77573 47.8569 2.93906 46.0835L4.24573 31.8735C4.59573 28.0235 5.62239 23.9169 13.1124 23.9169H42.8857C50.3757 23.9169 51.3791 28.0235 51.7524 31.8735L53.0591 46.0835C53.2224 47.8569 52.6391 49.6302 51.4257 50.9602C50.1891 52.3135 48.4157 53.0835 46.5724 53.0835ZM22.0257 42.5835H33.9724C38.2191 42.5835 39.2224 44.4735 40.0624 46.9469L40.5524 48.3935C40.9491 49.5835 40.9491 49.6069 42.2091 49.6069H46.5957C47.4591 49.6069 48.2757 49.2569 48.8591 48.6269C49.4191 48.0202 49.6757 47.2502 49.6057 46.4335L48.2991 32.2235C47.9957 29.0735 47.6224 27.4402 42.9324 27.4402H13.1124C8.39906 27.4402 8.02573 29.0735 7.74573 32.2235L6.43906 46.4335C6.36906 47.2502 6.62573 48.0202 7.18573 48.6269C7.74573 49.2569 8.58573 49.6069 9.44906 49.6069H13.8357C15.0957 49.6069 15.0957 49.5835 15.4924 48.4169L15.9591 46.9935C16.5424 45.1269 17.4057 42.5835 22.0257 42.5835Z" fill="#0145FE"/>
<path d="M9.33236 20.4169H6.99902C6.04236 20.4169 5.24902 19.6235 5.24902 18.6669C5.24902 17.7102 6.04236 16.9169 6.99902 16.9169H9.33236C10.289 16.9169 11.0824 17.7102 11.0824 18.6669C11.0824 19.6235 10.289 20.4169 9.33236 20.4169Z" fill="#0145FE"/>
<path d="M48.9989 20.4169H46.6655C45.7089 20.4169 44.9155 19.6235 44.9155 18.6669C44.9155 17.7102 45.7089 16.9169 46.6655 16.9169H48.9989C49.9555 16.9169 50.7489 17.7102 50.7489 18.6669C50.7489 19.6235 49.9555 20.4169 48.9989 20.4169Z" fill="#0145FE"/>
<path d="M27.999 13.4168C27.0424 13.4168 26.249 12.6235 26.249 11.6668V7.00012C26.249 6.04346 27.0424 5.25012 27.999 5.25012C28.9557 5.25012 29.749 6.04346 29.749 7.00012V11.6668C29.749 12.6235 28.9557 13.4168 27.999 13.4168Z" fill="#0145FE"/>
<path d="M31.499 13.4169H24.499C23.5424 13.4169 22.749 12.6235 22.749 11.6669C22.749 10.7102 23.5424 9.91687 24.499 9.91687H31.499C32.4557 9.91687 33.249 10.7102 33.249 11.6669C33.249 12.6235 32.4557 13.4169 31.499 13.4169Z" fill="#0145FE"/>
<path d="M20.999 36.7502H13.999C13.0424 36.7502 12.249 35.9569 12.249 35.0002C12.249 34.0436 13.0424 33.2502 13.999 33.2502H20.999C21.9557 33.2502 22.749 34.0436 22.749 35.0002C22.749 35.9569 21.9557 36.7502 20.999 36.7502Z" fill="#0145FE"/>
<path d="M41.999 36.7502H34.999C34.0424 36.7502 33.249 35.9569 33.249 35.0002C33.249 34.0436 34.0424 33.2502 34.999 33.2502H41.999C42.9557 33.2502 43.749 34.0436 43.749 35.0002C43.749 35.9569 42.9557 36.7502 41.999 36.7502Z" fill="#0145FE"/>
</svg>
