<svg width="56" height="56" viewBox="0 0 56 56" fill="none" xmlns="http://www.w3.org/2000/svg">
<path d="M22.4002 48.4167C12.1568 48.4167 7.5835 43.8434 7.5835 33.6V22.4C7.5835 12.1567 12.1568 7.58337 22.4002 7.58337H33.6002C43.8435 7.58337 48.4168 12.1567 48.4168 22.4C48.4168 23.3567 47.6235 24.15 46.6668 24.15C45.7102 24.15 44.9168 23.3567 44.9168 22.4C44.9168 14.0467 41.9535 11.0834 33.6002 11.0834H22.4002C14.0468 11.0834 11.0835 14.0467 11.0835 22.4V33.6C11.0835 41.9534 14.0468 44.9167 22.4002 44.9167C23.3568 44.9167 24.1502 45.71 24.1502 46.6667C24.1502 47.6234 23.3568 48.4167 22.4002 48.4167Z" fill="#0145FE"/>
<path d="M18.6434 39.9C18.2701 39.9 17.8734 39.7834 17.5467 39.5267C15.5167 37.9167 14.5601 35.35 14.5601 31.5V24.5C14.5601 17.7334 17.7101 14.5834 24.4767 14.5834H31.4767C35.3267 14.5834 37.8701 15.54 39.5034 17.57C40.1101 18.3167 39.9701 19.4367 39.2234 20.02C38.4767 20.6267 37.3567 20.51 36.7734 19.74C36.2134 19.0167 35.0467 18.0834 31.5001 18.0834H24.5001C19.6467 18.0834 18.0834 19.6467 18.0834 24.5V31.5C18.0834 35.0467 19.0401 36.2134 19.7401 36.7734C20.4867 37.38 20.6267 38.4767 20.0201 39.2234C19.6701 39.6667 19.1567 39.9 18.6434 39.9Z" fill="#0145FE"/>
<path d="M18.6899 11.0833C17.7099 11.0833 16.9399 10.29 16.9399 9.33329V4.66663C16.9399 3.70996 17.7333 2.91663 18.6899 2.91663C19.6466 2.91663 20.4399 3.70996 20.4399 4.66663V9.33329C20.4399 10.29 19.6466 11.0833 18.6899 11.0833Z" fill="#0145FE"/>
<path d="M28 11.0833C27.0433 11.0833 26.25 10.29 26.25 9.33329V4.66663C26.25 3.70996 27.0433 2.91663 28 2.91663C28.9567 2.91663 29.75 3.70996 29.75 4.66663V9.33329C29.75 10.29 28.9567 11.0833 28 11.0833Z" fill="#0145FE"/>
<path d="M37.3335 11.0833C36.3768 11.0833 35.5835 10.29 35.5835 9.33329V4.66663C35.5835 3.70996 36.3768 2.91663 37.3335 2.91663C38.2902 2.91663 39.0835 3.70996 39.0835 4.66663V9.33329C39.0835 10.29 38.2902 11.0833 37.3335 11.0833Z" fill="#0145FE"/>
<path d="M51.3332 20.4166H46.6665C45.7098 20.4166 44.9165 19.6233 44.9165 18.6666C44.9165 17.71 45.7098 16.9166 46.6665 16.9166H51.3332C52.2898 16.9166 53.0832 17.71 53.0832 18.6666C53.0832 19.6233 52.3132 20.4166 51.3332 20.4166Z" fill="#0145FE"/>
<path d="M18.6899 53.0833C17.7333 53.0833 16.9399 52.29 16.9399 51.3333V46.6666C16.9399 45.71 17.7333 44.9166 18.6899 44.9166C19.6466 44.9166 20.4399 45.71 20.4399 46.6666V51.3333C20.4399 52.29 19.6466 53.0833 18.6899 53.0833Z" fill="#0145FE"/>
<path d="M9.33317 20.4166H4.6665C3.70984 20.4166 2.9165 19.6466 2.9165 18.6666C2.9165 17.6866 3.70984 16.9166 4.6665 16.9166H9.33317C10.2898 16.9166 11.0832 17.71 11.0832 18.6666C11.0832 19.6233 10.3132 20.4166 9.33317 20.4166Z" fill="#0145FE"/>
<path d="M9.33317 29.75H4.6665C3.70984 29.75 2.9165 28.9567 2.9165 28C2.9165 27.0433 3.70984 26.25 4.6665 26.25H9.33317C10.2898 26.25 11.0832 27.0433 11.0832 28C11.0832 28.9567 10.3132 29.75 9.33317 29.75Z" fill="#0145FE"/>
<path d="M9.33317 39.0834H4.6665C3.70984 39.0834 2.9165 38.29 2.9165 37.3334C2.9165 36.3767 3.70984 35.5834 4.6665 35.5834H9.33317C10.2898 35.5834 11.0832 36.3767 11.0832 37.3334C11.0832 38.29 10.3132 39.0834 9.33317 39.0834Z" fill="#0145FE"/>
<path d="M38.9898 45.1267C35.9798 45.1267 33.5298 42.6767 33.5298 39.6667C33.5298 36.6567 35.9798 34.2067 38.9898 34.2067C41.9998 34.2067 44.4498 36.6567 44.4498 39.6667C44.4264 42.6767 41.9998 45.1267 38.9898 45.1267ZM38.9898 37.7067C37.9164 37.7067 37.0298 38.5933 37.0298 39.6667C37.0298 40.74 37.9164 41.6267 38.9898 41.6267C40.0631 41.6267 40.9498 40.74 40.9498 39.6667C40.9265 38.5933 40.0631 37.7067 38.9898 37.7067Z" fill="#0145FE"/>
<path d="M42.9334 53.0833C41.6268 53.0833 40.3434 52.4067 39.6434 51.1933L39.4801 50.9367C39.2234 50.4933 39.0134 50.3767 38.9668 50.3533C38.9434 50.3533 38.7101 50.4933 38.4534 50.9367L38.3134 51.17C37.2401 53.0133 34.8834 53.62 33.0868 52.5467L30.9868 51.3333C30.0301 50.7967 29.3534 49.91 29.0734 48.8367C28.7934 47.7867 28.9334 46.6667 29.4701 45.7333C29.7268 45.29 29.7268 45.0333 29.7034 44.9867C29.6801 44.9633 29.4701 44.8467 28.9568 44.8467C26.6934 44.8467 24.8501 43.0033 24.8501 40.7633V38.5933C24.8501 36.33 26.6934 34.51 28.9334 34.51C29.4468 34.51 29.6568 34.37 29.7034 34.3467C29.7034 34.3233 29.7034 34.0667 29.4468 33.6233C28.9101 32.6667 28.7468 31.57 29.0501 30.52C29.3301 29.47 30.0068 28.5833 30.9634 28.0233L33.0868 26.7867C34.8601 25.7367 37.2168 26.3433 38.2668 28.1633L38.4068 28.42C38.6634 28.8633 38.8734 28.98 38.9201 29.0033C38.9434 29.0033 39.1768 28.8633 39.4334 28.42L39.5734 28.1867C40.6701 26.3433 43.0034 25.7367 44.8001 26.81L46.9701 28C47.9268 28.5367 48.6034 29.4233 48.8834 30.4967C49.1634 31.5467 49.0234 32.6667 48.4868 33.6C48.2301 34.0433 48.2301 34.3 48.2534 34.3467C48.2768 34.37 48.4868 34.4867 49.0001 34.4867C51.2634 34.4867 53.1068 36.33 53.1068 38.57V40.74C53.1068 43.0033 51.2634 44.8233 49.0234 44.8233C48.5101 44.8233 48.3001 44.9633 48.2534 44.9867C48.2534 45.01 48.2534 45.2667 48.5101 45.71C49.0468 46.6667 49.2101 47.7633 48.9068 48.8133C48.6268 49.8633 47.9501 50.75 46.9934 51.31L44.8701 52.5467C44.2401 52.8967 43.5868 53.0833 42.9334 53.0833ZM38.9901 46.8533C40.3901 46.8533 41.6734 47.6933 42.5368 49.1867L42.6768 49.4433C42.7468 49.56 42.9334 49.63 43.0734 49.5367L45.2201 48.3C45.4068 48.2067 45.4768 48.02 45.5001 47.9267C45.5234 47.8333 45.5468 47.67 45.4534 47.4833C44.5901 46.0133 44.5201 44.4733 45.2201 43.26C45.9201 42.0467 47.2968 41.3467 49.0001 41.3467C49.3268 41.3467 49.6068 41.0667 49.6068 40.7633V38.5933C49.6068 38.2667 49.3268 38.01 49.0234 38.01C47.3201 38.01 45.9201 37.31 45.2434 36.0967C44.5434 34.8833 44.6368 33.3433 45.4768 31.8733C45.5934 31.6867 45.5701 31.5 45.5234 31.43C45.5001 31.3367 45.4301 31.1733 45.2434 31.0567L43.1201 29.82C42.9568 29.7267 42.7701 29.7967 42.6768 29.9367L42.5601 30.1467C41.6968 31.64 40.4134 32.48 39.0134 32.48C37.6134 32.48 36.3301 31.64 35.4668 30.1467L35.3268 29.9133C35.2568 29.7733 35.0468 29.7267 34.9301 29.7967L32.7834 31.0333C32.5968 31.1267 32.5268 31.3133 32.5034 31.4067C32.4801 31.5 32.4568 31.6633 32.5501 31.85C33.4134 33.32 33.4834 34.86 32.7834 36.0733C32.0834 37.2867 30.7068 37.9867 29.0034 37.9867C28.6768 37.9867 28.3968 38.2667 28.3968 38.57V40.74C28.3968 41.0667 28.6768 41.3233 28.9801 41.3233C30.6834 41.3233 32.0834 42.0233 32.7601 43.2367C33.4601 44.45 33.3668 45.99 32.5268 47.46C32.4334 47.6467 32.4568 47.81 32.4801 47.9033C32.5034 47.9967 32.5734 48.16 32.7601 48.2767L34.8834 49.5133C35.0468 49.6067 35.2334 49.5367 35.3268 49.3967L35.4434 49.1633C36.2834 47.6933 37.5901 46.8533 38.9901 46.8533Z" fill="#0145FE"/>
</svg>
