<svg width="53" height="53" viewBox="0 0 53 53" fill="none" xmlns="http://www.w3.org/2000/svg">
<path d="M52.0549 32.2613C52.0387 32.0779 51.9834 31.9 51.8927 31.7397C51.8508 31.6622 51.8014 31.5889 51.7452 31.5211C51.6834 31.448 51.6142 31.3817 51.5386 31.3231C51.4989 31.2915 51.4748 31.2478 51.4311 31.2201L38.7778 23.2017V12.7318H41.9029C42.4724 12.7318 43.0217 12.5205 43.4443 12.1388C43.867 11.7571 44.133 11.232 44.1907 10.6654C44.2484 10.0988 44.0939 9.53098 43.7569 9.07183C43.4199 8.61267 42.9246 8.2949 42.3667 8.18005L3.17922 0.112149C2.97491 0.0701639 2.76382 0.0741679 2.56125 0.123871C2.35868 0.173573 2.1697 0.267729 2.00803 0.399512C1.84635 0.531295 1.71603 0.697403 1.6265 0.885792C1.53698 1.07418 1.49049 1.28013 1.49042 1.48871V49.2719C1.30545 49.2713 1.12216 49.3071 0.951081 49.3775C0.78 49.4478 0.624486 49.5512 0.493459 49.6818C0.362432 49.8123 0.258469 49.9675 0.187531 50.1383C0.116594 50.3092 0.0800781 50.4923 0.0800781 50.6773C0.0800781 50.8623 0.116594 51.0454 0.187531 51.2163C0.258469 51.3871 0.362432 51.5422 0.493459 51.6728C0.624486 51.8034 0.78 51.9068 0.951081 51.9771C1.12216 52.0475 1.30545 52.0833 1.49042 52.0827H11.3241L11.3288 52.0834L11.3322 52.0827H12.7336C12.9185 52.0833 13.1018 52.0475 13.2729 51.9771C13.444 51.9068 13.5995 51.8034 13.7305 51.6728C13.8615 51.5422 13.9655 51.3871 14.0364 51.2163C14.1074 51.0454 14.1439 50.8623 14.1439 50.6773C14.1439 50.4923 14.1074 50.3092 14.0364 50.1383C13.9655 49.9675 13.8615 49.8123 13.7305 49.6818C13.5995 49.5512 13.444 49.4478 13.2729 49.3775C13.1018 49.3071 12.9185 49.2713 12.7336 49.2719V21.1641H19.7605C20.1332 21.1641 20.4907 21.0161 20.7542 20.7525C21.0178 20.4889 21.1659 20.1315 21.1659 19.7588V12.7318H35.967V23.1988L23.2279 31.218C23.1897 31.2505 23.1533 31.2851 23.119 31.3217C23.0431 31.3801 22.9736 31.4462 22.9116 31.5191C22.8004 31.6562 22.7144 31.8119 22.6576 31.979C22.629 32.0702 22.61 32.1642 22.601 32.2595C22.5883 32.3081 22.5783 32.3574 22.5712 32.4072V38.0288C22.5712 38.4015 22.7193 38.759 22.9828 39.0225C23.2464 39.2861 23.6038 39.4342 23.9766 39.4342H50.679C51.0517 39.4342 51.4092 39.2861 51.6727 39.0225C51.9363 38.759 52.0844 38.4015 52.0844 38.0288V32.4072C52.0773 32.3581 52.0675 32.3094 52.0549 32.2613ZM36.8838 9.92113H4.3012V3.2132L36.8838 9.92113ZM5.02696 32.4072H9.92275V43.8308L5.02696 32.4072ZM4.3012 12.7318H9.19698L4.3012 24.1554V12.7318ZM9.92275 19.7587V29.5964H5.02722L9.92275 18.1731V19.7587ZM4.3012 37.8483L9.19698 49.2719H4.3012V37.8483ZM18.3551 18.3534H12.7335V12.7318H18.3551L18.3551 18.3534ZM37.3698 25.6371L45.8357 31.0019H28.8472L37.3698 25.6371ZM49.2736 36.6234H25.382V33.8127H49.2736V36.6234Z" fill="#0145FE"/>
</svg>
