<svg width="56" height="56" viewBox="0 0 56 56" fill="none" xmlns="http://www.w3.org/2000/svg">
<path d="M31.267 40.6467H25.4104C21.5837 40.6467 18.4804 37.4267 18.4804 33.4601C18.4804 32.5034 19.2737 31.7101 20.2304 31.7101C21.187 31.7101 21.9804 32.5034 21.9804 33.4601C21.9804 35.4901 23.5204 37.1467 25.4104 37.1467H31.267C32.7837 37.1467 34.0437 35.7934 34.0437 34.1601C34.0437 32.1301 33.3204 31.7334 32.1304 31.3134L22.727 28.0001C20.907 27.3701 18.457 26.0167 18.457 21.8401C18.457 18.2467 21.2804 15.3534 24.7337 15.3534H30.5904C34.417 15.3534 37.5204 18.5734 37.5204 22.5401C37.5204 23.4967 36.727 24.2901 35.7704 24.2901C34.8137 24.2901 34.0204 23.4967 34.0204 22.5401C34.0204 20.5101 32.4804 18.8534 30.5904 18.8534H24.7337C23.217 18.8534 21.957 20.2067 21.957 21.8401C21.957 23.8701 22.6804 24.2667 23.8704 24.6867L33.2737 28.0001C35.0937 28.6301 37.5437 29.9834 37.5437 34.1601C37.5204 37.7301 34.7204 40.6467 31.267 40.6467Z" fill="#0145FE"/>
<path d="M28 43.75C27.0433 43.75 26.25 42.9567 26.25 42V14C26.25 13.0433 27.0433 12.25 28 12.25C28.9567 12.25 29.75 13.0433 29.75 14V42C29.75 42.9567 28.9567 43.75 28 43.75Z" fill="#0145FE"/>
<path d="M28.0003 53.1667C14.1637 53.1667 2.91699 41.92 2.91699 28.0833C2.91699 14.2467 14.1637 3 28.0003 3C41.837 3 53.0837 14.2467 53.0837 28.0833C53.0837 41.92 41.837 53.1667 28.0003 53.1667ZM28.0003 6.5C16.1003 6.5 6.41699 16.1833 6.41699 28.0833C6.41699 39.9833 16.1003 49.6667 28.0003 49.6667C39.9003 49.6667 49.5837 39.9833 49.5837 28.0833C49.5837 16.1833 39.9003 6.5 28.0003 6.5Z" fill="#0145FE"/>
</svg>
