<svg width="56" height="56" viewBox="0 0 56 56" fill="none" xmlns="http://www.w3.org/2000/svg">
<path d="M51.3332 53.0833H4.6665C3.70984 53.0833 2.9165 52.29 2.9165 51.3333C2.9165 50.3766 3.70984 49.5833 4.6665 49.5833H51.3332C52.2898 49.5833 53.0832 50.3766 53.0832 51.3333C53.0832 52.29 52.2898 53.0833 51.3332 53.0833Z" fill="#0145FE"/>
<path d="M49 53.0834H7C6.04333 53.0834 5.25 52.29 5.25 51.3334V14C5.25 6.95335 9.28667 2.91669 16.3333 2.91669H39.6667C46.7133 2.91669 50.75 6.95335 50.75 14V51.3334C50.75 52.29 49.9567 53.0834 49 53.0834ZM8.75 49.5834H47.25V14C47.25 8.82002 44.8467 6.41669 39.6667 6.41669H16.3333C11.1533 6.41669 8.75 8.82002 8.75 14V49.5834Z" fill="#0145FE"/>
<path d="M35 53.0833H21C20.0433 53.0833 19.25 52.29 19.25 51.3333V37.1933C19.25 35.0233 21.0233 33.25 23.1933 33.25H32.83C35 33.25 36.7733 35.0233 36.7733 37.1933V51.3333C36.75 52.29 35.9567 53.0833 35 53.0833ZM22.75 49.5833H33.25V37.1933C33.25 36.96 33.0633 36.75 32.8067 36.75H23.17C22.9366 36.75 22.7267 36.9367 22.7267 37.1933V49.5833H22.75Z" fill="#0145FE"/>
<path d="M28 27.4167C27.0433 27.4167 26.25 26.6233 26.25 25.6667V14C26.25 13.0433 27.0433 12.25 28 12.25C28.9567 12.25 29.75 13.0433 29.75 14V25.6667C29.75 26.6233 28.9567 27.4167 28 27.4167Z" fill="#0145FE"/>
<path d="M33.8332 21.5833H22.1665C21.2098 21.5833 20.4165 20.79 20.4165 19.8333C20.4165 18.8766 21.2098 18.0833 22.1665 18.0833H33.8332C34.7898 18.0833 35.5832 18.8766 35.5832 19.8333C35.5832 20.79 34.7898 21.5833 33.8332 21.5833Z" fill="#0145FE"/>
</svg>
