<svg width="56" height="56" viewBox="0 0 56 56" fill="none" xmlns="http://www.w3.org/2000/svg">
<path d="M42.4437 41.4166H17.5936C15.2836 41.4166 13.067 40.4366 11.5036 38.7333C9.94031 37.03 9.14699 34.7433 9.33366 32.4333L11.2703 9.1933C11.3403 8.46996 11.0836 7.76997 10.5936 7.23331C10.1036 6.69664 9.42698 6.41663 8.70365 6.41663H4.66699C3.71033 6.41663 2.91699 5.62329 2.91699 4.66663C2.91699 3.70996 3.71033 2.91663 4.66699 2.91663H8.72701C10.4303 2.91663 12.0403 3.63995 13.1836 4.87662C13.8136 5.57662 14.2803 6.3933 14.537 7.3033H43.6803C46.037 7.3033 48.207 8.23663 49.7937 9.91663C51.357 11.62 52.1503 13.8366 51.9637 16.1933L50.7037 33.6933C50.447 37.9633 46.7137 41.4166 42.4437 41.4166ZM14.6537 10.7799L12.8337 32.7133C12.717 34.0666 13.1603 35.3499 14.0703 36.3533C14.9803 37.3566 16.2403 37.8933 17.5936 37.8933H42.4437C44.8703 37.8933 47.0637 35.84 47.2503 33.4133L48.5103 15.9133C48.6036 14.5366 48.1603 13.23 47.2503 12.2733C46.3403 11.2933 45.0803 10.7566 43.7037 10.7566H14.6537V10.7799Z" fill="#0145FE"/>
<path d="M37.9167 53.3333C35.35 53.3333 33.25 51.2333 33.25 48.6667C33.25 46.1 35.35 44 37.9167 44C40.4833 44 42.5833 46.1 42.5833 48.6667C42.5833 51.2333 40.4833 53.3333 37.9167 53.3333ZM37.9167 47.5C37.2633 47.5 36.75 48.0133 36.75 48.6667C36.75 49.32 37.2633 49.8333 37.9167 49.8333C38.57 49.8333 39.0833 49.32 39.0833 48.6667C39.0833 48.0133 38.57 47.5 37.9167 47.5Z" fill="#0145FE"/>
<path d="M19.2497 53.0833C16.683 53.0833 14.583 50.9833 14.583 48.4167C14.583 45.85 16.683 43.75 19.2497 43.75C21.8163 43.75 23.9163 45.85 23.9163 48.4167C23.9163 50.9833 21.8163 53.0833 19.2497 53.0833ZM19.2497 47.25C18.5963 47.25 18.083 47.7633 18.083 48.4167C18.083 49.07 18.5963 49.5833 19.2497 49.5833C19.903 49.5833 20.4163 49.07 20.4163 48.4167C20.4163 47.7633 19.903 47.25 19.2497 47.25Z" fill="#0145FE"/>
<path d="M49 20.4166H21C20.0433 20.4166 19.25 19.6233 19.25 18.6666C19.25 17.71 20.0433 16.9166 21 16.9166H49C49.9567 16.9166 50.75 17.71 50.75 18.6666C50.75 19.6233 49.9567 20.4166 49 20.4166Z" fill="#0145FE"/>
</svg>
