<svg width="56" height="56" viewBox="0 0 56 56" fill="none" xmlns="http://www.w3.org/2000/svg">
<path d="M30.333 34.4166H27.9996C27.043 34.4166 26.2496 33.6233 26.2496 32.6666C26.2496 31.71 27.043 30.9166 27.9996 30.9166H30.333C31.943 30.9166 33.2496 29.61 33.2496 28V6.41663H13.9996C11.2463 6.41663 8.72625 7.90992 7.37291 10.3133C6.90625 11.1533 5.83301 11.4567 4.99301 10.99C4.15301 10.5233 3.84959 9.44997 4.31625 8.60996C6.27625 5.10996 9.98631 2.91663 13.9996 2.91663H34.9996C35.9563 2.91663 36.7496 3.70996 36.7496 4.66663V28C36.7496 31.5466 33.8796 34.4166 30.333 34.4166Z" fill="#0145FE"/>
<path d="M44.3332 48.4166H41.9998C41.0432 48.4166 40.2498 47.6233 40.2498 46.6666C40.2498 45.0566 38.9432 43.75 37.3332 43.75C35.7232 43.75 34.4165 45.0566 34.4165 46.6666C34.4165 47.6233 33.6232 48.4166 32.6665 48.4166H23.3332C22.3765 48.4166 21.5832 47.6233 21.5832 46.6666C21.5832 45.0566 20.2765 43.75 18.6665 43.75C17.0565 43.75 15.7498 45.0566 15.7498 46.6666C15.7498 47.6233 14.9565 48.4166 13.9998 48.4166H11.6665C6.8365 48.4166 2.9165 44.4966 2.9165 39.6666C2.9165 38.71 3.70984 37.9166 4.6665 37.9166C5.62317 37.9166 6.4165 38.71 6.4165 39.6666C6.4165 42.56 8.77317 44.9166 11.6665 44.9166H12.4831C13.2531 42.2333 15.7265 40.25 18.6665 40.25C21.6065 40.25 24.0799 42.2333 24.8499 44.9166H31.1731C31.9431 42.2333 34.4165 40.25 37.3565 40.25C40.2965 40.25 42.7698 42.2333 43.5398 44.9166H44.3332C47.2265 44.9166 49.5832 42.56 49.5832 39.6666V34.4166H44.3332C42.0932 34.4166 40.2498 32.5733 40.2498 30.3333V23.3333C40.2498 21.0933 42.0698 19.25 44.3332 19.25L41.8365 14.8866C41.3232 13.9766 40.3432 13.4166 39.2932 13.4166H36.7498V28C36.7498 31.5466 33.8798 34.4166 30.3332 34.4166H27.9998C27.0432 34.4166 26.2498 33.6233 26.2498 32.6666C26.2498 31.71 27.0432 30.9166 27.9998 30.9166H30.3332C31.9432 30.9166 33.2498 29.61 33.2498 28V11.6666C33.2498 10.71 34.0432 9.91663 34.9998 9.91663H39.2932C41.6032 9.91663 43.7265 11.1533 44.8698 13.16L48.8598 20.1366C49.1632 20.6733 49.1632 21.35 48.8598 21.8866C48.5565 22.4233 47.9731 22.75 47.3431 22.75H44.3332C44.0065 22.75 43.7498 23.0066 43.7498 23.3333V30.3333C43.7498 30.66 44.0065 30.9166 44.3332 30.9166H51.3332C52.2898 30.9166 53.0832 31.71 53.0832 32.6666V39.6666C53.0832 44.4966 49.1632 48.4166 44.3332 48.4166Z" fill="#0145FE"/>
<path d="M18.6667 53.0833C15.12 53.0833 12.25 50.2133 12.25 46.6667C12.25 43.12 15.12 40.25 18.6667 40.25C22.2133 40.25 25.0833 43.12 25.0833 46.6667C25.0833 50.2133 22.2133 53.0833 18.6667 53.0833ZM18.6667 43.75C17.0567 43.75 15.75 45.0567 15.75 46.6667C15.75 48.2767 17.0567 49.5833 18.6667 49.5833C20.2767 49.5833 21.5833 48.2767 21.5833 46.6667C21.5833 45.0567 20.2767 43.75 18.6667 43.75Z" fill="#0145FE"/>
<path d="M37.3332 53.0833C33.7865 53.0833 30.9165 50.2133 30.9165 46.6667C30.9165 43.12 33.7865 40.25 37.3332 40.25C40.8798 40.25 43.7498 43.12 43.7498 46.6667C43.7498 50.2133 40.8798 53.0833 37.3332 53.0833ZM37.3332 43.75C35.7232 43.75 34.4165 45.0567 34.4165 46.6667C34.4165 48.2767 35.7232 49.5833 37.3332 49.5833C38.9432 49.5833 40.2498 48.2767 40.2498 46.6667C40.2498 45.0567 38.9432 43.75 37.3332 43.75Z" fill="#0145FE"/>
<path d="M51.3333 34.4167H44.3333C42.0933 34.4167 40.25 32.5733 40.25 30.3333V23.3333C40.25 21.0933 42.0933 19.25 44.3333 19.25H47.3433C47.9733 19.25 48.5567 19.5767 48.86 20.1367L52.8501 27.1367C52.9901 27.3933 53.0833 27.6967 53.0833 28V32.6667C53.0833 33.6233 52.29 34.4167 51.3333 34.4167ZM44.3333 22.75C44.0067 22.75 43.75 23.0067 43.75 23.3333V30.3333C43.75 30.66 44.0067 30.9167 44.3333 30.9167H49.5833V28.4667L46.3166 22.75H44.3333Z" fill="#0145FE"/>
<path d="M18.6665 20.4166H4.6665C3.70984 20.4166 2.9165 19.6233 2.9165 18.6666C2.9165 17.71 3.70984 16.9166 4.6665 16.9166H18.6665C19.6232 16.9166 20.4165 17.71 20.4165 18.6666C20.4165 19.6233 19.6232 20.4166 18.6665 20.4166Z" fill="#0145FE"/>
<path d="M13.9998 27.4166H4.6665C3.70984 27.4166 2.9165 26.6233 2.9165 25.6666C2.9165 24.71 3.70984 23.9166 4.6665 23.9166H13.9998C14.9565 23.9166 15.7498 24.71 15.7498 25.6666C15.7498 26.6233 14.9565 27.4166 13.9998 27.4166Z" fill="#0145FE"/>
<path d="M9.33317 34.4166H4.6665C3.70984 34.4166 2.9165 33.6233 2.9165 32.6666C2.9165 31.71 3.70984 30.9166 4.6665 30.9166H9.33317C10.2898 30.9166 11.0832 31.71 11.0832 32.6666C11.0832 33.6233 10.2898 34.4166 9.33317 34.4166Z" fill="#0145FE"/>
</svg>
