<svg width="564" height="437" viewBox="0 0 564 437" fill="none" xmlns="http://www.w3.org/2000/svg">
<g opacity="0.2">
<mask id="path-1-inside-1_45_128955" fill="white">
<path fill-rule="evenodd" clip-rule="evenodd" d="M601.717 131.72C601.717 147.49 588.929 160.279 573.146 160.279C557.369 160.279 544.575 147.49 544.575 131.72C544.575 121.179 543.866 110.559 542.467 99.9385C541.123 89.7432 539.028 79.326 536.193 68.761C518.783 3.80025 476.684 -47.9528 422.691 -79.1056C422.235 -79.3705 421.785 -79.6477 421.348 -79.9311C367.65 -110.431 302.336 -120.645 237.86 -103.377C172.872 -85.9682 121.097 -43.8869 89.9317 10.0776C89.6667 10.5335 89.3893 10.9832 89.1058 11.4206C58.5933 65.0956 48.3753 130.383 65.6498 194.832C79.7752 247.522 110.608 292.314 151.561 324.101C192.569 355.925 243.585 374.708 298.028 375.33C313.805 375.454 326.501 388.341 326.377 404.118C326.254 419.888 313.361 432.572 297.584 432.449C229.99 431.679 166.882 408.547 116.383 369.349C65.8347 330.113 27.7665 274.769 10.3009 209.617C-10.9981 130.149 1.69749 49.5223 39.476 -16.8369C39.7657 -17.4283 40.0738 -18.0135 40.4128 -18.5926C78.9124 -85.2413 142.84 -137.21 223.075 -158.703C302.576 -179.994 383.23 -167.303 449.623 -129.54C450.215 -129.251 450.8 -128.943 451.379 -128.604C518.056 -90.1203 570.046 -26.2191 591.542 53.9824C594.864 66.3585 597.403 79.2459 599.159 92.5522C600.854 105.427 601.717 118.518 601.717 131.726V131.72ZM251.48 121.641L252.108 121.592L252.552 121.561L252.743 121.549L253.378 121.506H253.427C254.05 121.463 254.678 121.432 255.313 121.401L255.966 121.376L256.515 121.352H256.626L257.285 121.333H257.316L258.376 121.315L258.875 121.309H259.282H259.954H260.095L261.112 121.315L261.574 121.321L262.419 121.34L262.665 121.346L263.356 121.37H263.386L263.651 121.383L264.711 121.432H264.736H264.798L264.964 121.444L265.833 121.5L266.647 121.561L267.146 121.604L268.07 121.685L268.23 121.703L268.933 121.771L269.081 121.789L269.29 121.814L270.338 121.937L270.523 121.962L270.646 121.98L271.885 122.147L272.082 122.177L273.253 122.362L273.629 122.43L274.751 122.627L274.985 122.67C275.361 122.738 275.731 122.818 276.113 122.898L276.47 122.972L277.567 123.218L277.955 123.311L279.015 123.576L279.348 123.656L280.439 123.952L280.803 124.05L281.937 124.389L282.171 124.463C282.559 124.58 282.941 124.709 283.323 124.832L283.613 124.931C284.007 125.067 284.402 125.202 284.79 125.344L284.975 125.412C285.388 125.559 285.801 125.72 286.208 125.88L286.38 125.947C286.793 126.108 287.194 126.274 287.607 126.446L287.73 126.496L287.878 126.564C288.272 126.73 288.66 126.909 289.055 127.087L289.129 127.118L289.246 127.173C289.653 127.358 290.059 127.555 290.466 127.752L290.534 127.783C290.965 127.993 291.391 128.214 291.816 128.436L291.884 128.473L291.945 128.504C292.383 128.738 292.814 128.972 293.246 129.219L293.276 129.237C293.72 129.484 294.158 129.742 294.589 130.007L294.712 129.896C294.312 128.985 293.936 128.06 293.591 127.136L293.523 126.958C293.363 126.527 293.209 126.083 293.061 125.646L293.011 125.504C292.87 125.085 292.734 124.66 292.598 124.235L292.531 124.001C292.407 123.594 292.29 123.194 292.179 122.787L292.099 122.498C291.988 122.091 291.884 121.685 291.779 121.284L291.717 121.032C291.619 120.613 291.514 120.188 291.415 119.762L291.384 119.608C291.286 119.159 291.193 118.709 291.107 118.253L291.082 118.142C290.996 117.68 290.91 117.231 290.836 116.762L290.817 116.682C290.657 115.721 290.515 114.766 290.404 113.812V113.787C290.343 113.306 290.294 112.826 290.244 112.345V112.315L290.238 112.272C290.189 111.803 290.152 111.341 290.121 110.879V110.848L290.109 110.738L290.022 109.413V109.364C289.998 108.902 289.973 108.446 289.961 107.984V107.873L289.93 106.641L289.924 106.277L289.918 105.169V104.854L289.936 103.739L289.948 103.296L289.979 102.181L289.992 101.971L290.047 100.856L290.059 100.672L290.078 100.456L290.139 99.5011L290.176 99.0083L290.275 97.8933V97.844L290.287 97.7393L290.392 96.7105L290.417 96.4456V96.4271L290.448 96.1253L290.546 95.2505L290.571 95.0595L290.583 94.9794L290.676 94.2648L290.75 93.6919L290.768 93.5502L290.928 92.4783L290.947 92.3367L290.978 92.1395L291.089 91.4434L291.107 91.3448L291.187 90.8274L291.199 90.7534L291.323 90.0635L291.329 90.0327L291.434 89.4352L291.446 89.3797L291.575 88.702L291.674 88.1969L291.705 88.0244L291.84 87.3591L291.939 86.8971L291.982 86.6999L292.124 86.0408L292.161 85.8621L292.266 85.3878L292.414 84.741L292.438 84.6239L292.561 84.1064L292.58 84.0202C295.637 71.2498 300.216 62.2557 300.216 62.2557C269.105 74.5394 244.183 65.2065 234.914 60.6294L231.524 58.2084L233.798 61.6027C237.114 71.3915 243.08 97.3142 226.791 126.52C226.791 126.52 237.348 122.806 251.486 121.635L251.48 121.641ZM319.641 109.598L598.223 388.064C609.421 399.257 609.421 417.412 598.223 428.605C587.025 439.798 568.863 439.798 557.665 428.605L282.652 153.706C233.348 146.018 185.765 162.762 185.765 162.762C220.258 100.918 207.624 46.0232 200.605 25.2998L195.798 18.1107L202.971 23.2299C222.594 32.9202 275.367 52.6887 341.248 26.6797C341.248 26.6797 321.885 64.7014 319.641 109.604V109.598ZM250.413 259.947C239.215 248.754 239.215 230.599 250.413 219.406C261.611 208.213 279.773 208.213 290.971 219.406L459.484 387.848C470.681 399.042 470.681 417.196 459.484 428.389C448.286 439.583 430.123 439.583 418.926 428.389L250.413 259.953V259.947ZM391.531 124.734C380.333 113.541 380.333 95.386 391.531 84.1927C402.729 72.9993 420.891 72.9993 432.089 84.1927L600.602 252.635C611.799 263.828 611.799 281.983 600.602 293.176C589.404 304.369 571.241 304.369 560.043 293.176L391.531 124.734Z"/>
</mask>
<path fill-rule="evenodd" clip-rule="evenodd" d="M601.717 131.72C601.717 147.49 588.929 160.279 573.146 160.279C557.369 160.279 544.575 147.49 544.575 131.72C544.575 121.179 543.866 110.559 542.467 99.9385C541.123 89.7432 539.028 79.326 536.193 68.761C518.783 3.80025 476.684 -47.9528 422.691 -79.1056C422.235 -79.3705 421.785 -79.6477 421.348 -79.9311C367.65 -110.431 302.336 -120.645 237.86 -103.377C172.872 -85.9682 121.097 -43.8869 89.9317 10.0776C89.6667 10.5335 89.3893 10.9832 89.1058 11.4206C58.5933 65.0956 48.3753 130.383 65.6498 194.832C79.7752 247.522 110.608 292.314 151.561 324.101C192.569 355.925 243.585 374.708 298.028 375.33C313.805 375.454 326.501 388.341 326.377 404.118C326.254 419.888 313.361 432.572 297.584 432.449C229.99 431.679 166.882 408.547 116.383 369.349C65.8347 330.113 27.7665 274.769 10.3009 209.617C-10.9981 130.149 1.69749 49.5223 39.476 -16.8369C39.7657 -17.4283 40.0738 -18.0135 40.4128 -18.5926C78.9124 -85.2413 142.84 -137.21 223.075 -158.703C302.576 -179.994 383.23 -167.303 449.623 -129.54C450.215 -129.251 450.8 -128.943 451.379 -128.604C518.056 -90.1203 570.046 -26.2191 591.542 53.9824C594.864 66.3585 597.403 79.2459 599.159 92.5522C600.854 105.427 601.717 118.518 601.717 131.726V131.72ZM251.48 121.641L252.108 121.592L252.552 121.561L252.743 121.549L253.378 121.506H253.427C254.05 121.463 254.678 121.432 255.313 121.401L255.966 121.376L256.515 121.352H256.626L257.285 121.333H257.316L258.376 121.315L258.875 121.309H259.282H259.954H260.095L261.112 121.315L261.574 121.321L262.419 121.34L262.665 121.346L263.356 121.37H263.386L263.651 121.383L264.711 121.432H264.736H264.798L264.964 121.444L265.833 121.5L266.647 121.561L267.146 121.604L268.07 121.685L268.23 121.703L268.933 121.771L269.081 121.789L269.29 121.814L270.338 121.937L270.523 121.962L270.646 121.98L271.885 122.147L272.082 122.177L273.253 122.362L273.629 122.43L274.751 122.627L274.985 122.67C275.361 122.738 275.731 122.818 276.113 122.898L276.47 122.972L277.567 123.218L277.955 123.311L279.015 123.576L279.348 123.656L280.439 123.952L280.803 124.05L281.937 124.389L282.171 124.463C282.559 124.58 282.941 124.709 283.323 124.832L283.613 124.931C284.007 125.067 284.402 125.202 284.79 125.344L284.975 125.412C285.388 125.559 285.801 125.72 286.208 125.88L286.38 125.947C286.793 126.108 287.194 126.274 287.607 126.446L287.73 126.496L287.878 126.564C288.272 126.73 288.66 126.909 289.055 127.087L289.129 127.118L289.246 127.173C289.653 127.358 290.059 127.555 290.466 127.752L290.534 127.783C290.965 127.993 291.391 128.214 291.816 128.436L291.884 128.473L291.945 128.504C292.383 128.738 292.814 128.972 293.246 129.219L293.276 129.237C293.72 129.484 294.158 129.742 294.589 130.007L294.712 129.896C294.312 128.985 293.936 128.06 293.591 127.136L293.523 126.958C293.363 126.527 293.209 126.083 293.061 125.646L293.011 125.504C292.87 125.085 292.734 124.66 292.598 124.235L292.531 124.001C292.407 123.594 292.29 123.194 292.179 122.787L292.099 122.498C291.988 122.091 291.884 121.685 291.779 121.284L291.717 121.032C291.619 120.613 291.514 120.188 291.415 119.762L291.384 119.608C291.286 119.159 291.193 118.709 291.107 118.253L291.082 118.142C290.996 117.68 290.91 117.231 290.836 116.762L290.817 116.682C290.657 115.721 290.515 114.766 290.404 113.812V113.787C290.343 113.306 290.294 112.826 290.244 112.345V112.315L290.238 112.272C290.189 111.803 290.152 111.341 290.121 110.879V110.848L290.109 110.738L290.022 109.413V109.364C289.998 108.902 289.973 108.446 289.961 107.984V107.873L289.93 106.641L289.924 106.277L289.918 105.169V104.854L289.936 103.739L289.948 103.296L289.979 102.181L289.992 101.971L290.047 100.856L290.059 100.672L290.078 100.456L290.139 99.5011L290.176 99.0083L290.275 97.8933V97.844L290.287 97.7393L290.392 96.7105L290.417 96.4456V96.4271L290.448 96.1253L290.546 95.2505L290.571 95.0595L290.583 94.9794L290.676 94.2648L290.75 93.6919L290.768 93.5502L290.928 92.4783L290.947 92.3367L290.978 92.1395L291.089 91.4434L291.107 91.3448L291.187 90.8274L291.199 90.7534L291.323 90.0635L291.329 90.0327L291.434 89.4352L291.446 89.3797L291.575 88.702L291.674 88.1969L291.705 88.0244L291.84 87.3591L291.939 86.8971L291.982 86.6999L292.124 86.0408L292.161 85.8621L292.266 85.3878L292.414 84.741L292.438 84.6239L292.561 84.1064L292.58 84.0202C295.637 71.2498 300.216 62.2557 300.216 62.2557C269.105 74.5394 244.183 65.2065 234.914 60.6294L231.524 58.2084L233.798 61.6027C237.114 71.3915 243.08 97.3142 226.791 126.52C226.791 126.52 237.348 122.806 251.486 121.635L251.48 121.641ZM319.641 109.598L598.223 388.064C609.421 399.257 609.421 417.412 598.223 428.605C587.025 439.798 568.863 439.798 557.665 428.605L282.652 153.706C233.348 146.018 185.765 162.762 185.765 162.762C220.258 100.918 207.624 46.0232 200.605 25.2998L195.798 18.1107L202.971 23.2299C222.594 32.9202 275.367 52.6887 341.248 26.6797C341.248 26.6797 321.885 64.7014 319.641 109.604V109.598ZM250.413 259.947C239.215 248.754 239.215 230.599 250.413 219.406C261.611 208.213 279.773 208.213 290.971 219.406L459.484 387.848C470.681 399.042 470.681 417.196 459.484 428.389C448.286 439.583 430.123 439.583 418.926 428.389L250.413 259.953V259.947ZM391.531 124.734C380.333 113.541 380.333 95.386 391.531 84.1927C402.729 72.9993 420.891 72.9993 432.089 84.1927L600.602 252.635C611.799 263.828 611.799 281.983 600.602 293.176C589.404 304.369 571.241 304.369 560.043 293.176L391.531 124.734Z" stroke="white" stroke-width="6.58" mask="url(#path-1-inside-1_45_128955)"/>
</g>
</svg>
