<svg width="208" height="235" viewBox="0 0 208 235" fill="none" xmlns="http://www.w3.org/2000/svg">
<path fill-rule="evenodd" clip-rule="evenodd" d="M169.88 84.936C169.88 89.3902 166.269 93.0023 161.813 93.0023C157.359 93.0023 153.747 89.3902 153.747 84.936C153.747 81.9589 153.547 78.9593 153.152 75.9596C152.773 73.08 152.181 70.1378 151.381 67.1538C146.465 48.8061 134.58 34.1888 119.336 25.39C119.208 25.3152 119.08 25.2369 118.957 25.1568C103.797 16.5424 85.357 13.6576 67.1537 18.5346C48.8061 23.4517 34.1888 35.3372 25.39 50.5791C25.3151 50.7078 25.2368 50.8349 25.1568 50.9584C16.5424 66.1185 13.6575 84.5584 18.5346 102.762C22.5225 117.643 31.2275 130.294 42.7894 139.273C54.3669 148.261 68.7701 153.566 84.1408 153.742C88.595 153.777 92.1793 157.417 92.1445 161.873C92.1097 166.327 88.4697 169.909 84.0155 169.875C64.9318 169.657 47.1148 163.124 32.8578 152.052C18.5868 140.971 7.83919 125.339 2.9082 106.937C-3.10503 84.4923 0.479244 61.7199 11.1451 42.9773C11.2269 42.8103 11.3138 42.645 11.4095 42.4814C22.2789 23.657 40.3273 8.97885 62.9796 2.9082C85.4248 -3.10503 108.195 0.479243 126.94 11.1451C127.107 11.2269 127.272 11.3139 127.436 11.4095C146.26 22.279 160.938 40.3274 167.007 62.9796C167.945 66.4752 168.662 70.1151 169.158 73.8734C169.636 77.5099 169.88 81.2073 169.88 84.9377V84.936ZM70.999 82.0894L71.1765 82.0755L71.3018 82.0668L71.3557 82.0633L71.5349 82.0511H71.5488C71.7246 82.0389 71.902 82.0303 72.0812 82.0216L72.2657 82.0146L72.4205 82.0076H72.4519L72.638 82.0024H72.6467L72.946 81.9972L73.0869 81.9955H73.2018H73.3914H73.4314L73.7185 81.9972L73.849 81.9989L74.0874 82.0042L74.157 82.0059L74.3519 82.0128H74.3606L74.4354 82.0163L74.7346 82.0303H74.7416H74.759L74.806 82.0337L75.0513 82.0494L75.281 82.0668L75.4219 82.079L75.6829 82.1016L75.7282 82.1068L75.9265 82.1259L75.9683 82.1312L76.0274 82.1381L76.3232 82.1729L76.3754 82.1799L76.4102 82.1851L76.7599 82.2321L76.8156 82.2408L77.1462 82.293L77.2523 82.3121L77.569 82.3678L77.6351 82.38C77.7413 82.3991 77.8457 82.4217 77.9535 82.4444L78.0545 82.4652L78.3642 82.5348L78.4738 82.5609L78.7731 82.6357L78.867 82.6584L79.175 82.7419L79.2776 82.7697L79.5978 82.8654L79.6639 82.8863C79.7735 82.9194 79.8814 82.9559 79.9893 82.9907L80.071 83.0185C80.1824 83.0568 80.2938 83.0951 80.4034 83.1351L80.4556 83.1543C80.5722 83.196 80.6887 83.2412 80.8036 83.2865L80.8523 83.3056C80.9689 83.3509 81.082 83.3978 81.1985 83.4466L81.2333 83.4605L81.2751 83.4796C81.3864 83.5266 81.4961 83.5771 81.6074 83.6275L81.6283 83.6362L81.6613 83.6519C81.7762 83.7041 81.891 83.7598 82.0059 83.8154L82.025 83.8241C82.1468 83.8833 82.2669 83.9459 82.3869 84.0086L82.406 84.019L82.4234 84.0277C82.547 84.0938 82.6688 84.1599 82.7906 84.2295L82.7993 84.2348C82.9245 84.3044 83.0481 84.3774 83.1699 84.4522L83.2047 84.4209C83.0916 84.1634 82.9854 83.9024 82.888 83.6414L82.8689 83.591C82.8236 83.4692 82.7801 83.3439 82.7384 83.2204L82.7245 83.1804C82.6844 83.062 82.6462 82.942 82.6079 82.8219L82.5887 82.7558C82.5539 82.641 82.5209 82.5279 82.4896 82.413L82.4669 82.3313C82.4356 82.2164 82.406 82.1016 82.3765 81.9885L82.3591 81.9172C82.3312 81.7988 82.3017 81.6788 82.2738 81.5587L82.2651 81.5152C82.2373 81.3882 82.2112 81.2612 82.1868 81.1324L82.1799 81.1011C82.1555 80.9706 82.1311 80.8436 82.1103 80.7114L82.105 80.6888C82.0598 80.4173 82.0198 80.1476 81.9885 79.8779V79.871C81.9711 79.7353 81.9571 79.5995 81.9432 79.4638V79.4551L81.9415 79.443C81.9276 79.3107 81.9171 79.1802 81.9084 79.0497V79.041L81.9049 79.0097L81.8806 78.6356V78.6217C81.8736 78.4912 81.8667 78.3625 81.8632 78.232V78.2006L81.8545 77.8527L81.8527 77.75L81.851 77.4368V77.3481L81.8562 77.0331L81.8597 76.9079L81.8684 76.5929L81.8719 76.5338L81.8875 76.2188L81.891 76.1667L81.8962 76.1058L81.9136 75.8361L81.9241 75.6969L81.9519 75.3819V75.368L81.9554 75.3384L81.985 75.0479L81.9919 74.9731V74.9678L82.0006 74.8826L82.0285 74.6355L82.0354 74.5816L82.0389 74.5589L82.065 74.3571L82.0859 74.1953L82.0911 74.1553L82.1364 73.8525L82.1416 73.8125L82.1503 73.7568L82.1816 73.5602L82.1868 73.5324L82.2094 73.3862L82.2129 73.3653L82.2477 73.1705L82.2495 73.1618L82.279 72.993L82.2825 72.9773L82.319 72.7859L82.3469 72.6433L82.3556 72.5946L82.3939 72.4066L82.4217 72.2761L82.4339 72.2205L82.4739 72.0343L82.4843 71.9838L82.5139 71.8499L82.5557 71.6672L82.5626 71.6341L82.5974 71.488L82.6027 71.4636C83.4657 67.8567 84.7584 65.3164 84.7584 65.3164C75.9752 68.7858 68.9389 66.1498 66.322 64.857L65.3651 64.1732L66.0071 65.132C66.9432 67.8967 68.6275 75.2184 64.0288 83.4674C64.0288 83.4674 67.0093 82.4183 71.0007 82.0877L70.999 82.0894ZM90.2427 78.6878L224.893 221.338C228.055 224.5 228.055 229.627 224.893 232.789C221.732 235.95 216.604 235.95 213.443 232.789L79.7996 91.1458C65.8801 88.9743 52.446 93.7035 52.446 93.7035C62.1845 76.2362 58.6176 60.7316 56.6358 54.8785L55.2786 52.848L57.3039 54.2939C62.8439 57.0308 77.743 62.6143 96.343 55.2682C96.343 55.2682 90.8761 66.0071 90.2427 78.6896V78.6878ZM70.698 121.153C67.5365 117.991 67.5365 112.864 70.698 109.702C73.8595 106.541 78.9871 106.541 82.1485 109.702L193.724 229.277C196.885 232.439 196.885 237.567 193.724 240.728C190.562 243.889 185.435 243.889 182.273 240.728L70.698 121.155V121.153ZM110.539 82.9629C107.378 79.8014 107.378 74.6738 110.539 71.5123C113.701 68.3508 118.828 68.3508 121.99 71.5123L241.565 199.087C244.726 202.249 244.726 207.377 241.565 210.538C238.403 213.7 233.276 213.7 230.114 210.538L110.539 82.9629Z" fill="white"/>
</svg>
