<svg width="477" height="437" viewBox="0 0 477 437" fill="none" xmlns="http://www.w3.org/2000/svg">
<path opacity="0.2" fill-rule="evenodd" clip-rule="evenodd" d="M-124.717 131.72C-124.717 147.49 -111.929 160.279 -96.1458 160.279C-80.3688 160.279 -67.5746 147.49 -67.5746 131.72C-67.5746 121.179 -66.8659 110.559 -65.4669 99.9385C-64.1234 89.7432 -62.028 79.326 -59.1931 68.761C-41.7829 3.80025 0.315857 -47.9528 54.309 -79.1056C54.765 -79.3705 55.2149 -79.6477 55.6525 -79.9311C109.35 -110.431 174.664 -120.645 239.14 -103.377C304.128 -85.9682 355.903 -43.8869 387.068 10.0776C387.333 10.5335 387.611 10.9832 387.894 11.4206C418.407 65.0956 428.625 130.383 411.35 194.832C397.225 247.522 366.392 292.314 325.439 324.101C284.431 355.925 233.415 374.708 178.972 375.33C163.195 375.454 150.499 388.341 150.623 404.118C150.746 419.888 163.639 432.572 179.416 432.449C247.01 431.679 310.118 408.547 360.617 369.349C411.165 330.113 449.233 274.769 466.699 209.617C487.998 130.149 475.303 49.5223 437.524 -16.8369C437.234 -17.4283 436.926 -18.0135 436.587 -18.5926C398.088 -85.2413 334.16 -137.21 253.925 -158.703C174.424 -179.994 93.77 -167.303 27.3771 -129.54C26.7855 -129.251 26.2 -128.943 25.6207 -128.604C-41.0557 -90.1203 -93.0458 -26.2191 -114.542 53.9824C-117.864 66.3585 -120.403 79.2459 -122.159 92.5522C-123.854 105.427 -124.717 118.518 -124.717 131.726V131.72ZM225.52 121.641L224.892 121.592L224.448 121.561L224.257 121.549L223.622 121.506H223.573C222.95 121.463 222.322 121.432 221.687 121.401L221.034 121.376L220.485 121.352H220.374L219.715 121.333H219.684L218.624 121.315L218.125 121.309H217.718H217.046H216.905L215.888 121.315L215.426 121.321L214.581 121.34L214.335 121.346L213.644 121.37H213.614L213.349 121.383L212.289 121.432H212.264H212.202L212.036 121.444L211.167 121.5L210.353 121.561L209.854 121.604L208.93 121.685L208.77 121.703L208.067 121.771L207.919 121.789L207.71 121.814L206.662 121.937L206.477 121.962L206.354 121.98L205.115 122.147L204.918 122.177L203.747 122.362L203.371 122.43L202.249 122.627L202.015 122.67C201.639 122.738 201.269 122.818 200.887 122.898L200.53 122.972L199.433 123.218L199.045 123.311L197.985 123.576L197.652 123.656L196.561 123.952L196.197 124.05L195.063 124.389L194.829 124.463C194.441 124.58 194.059 124.709 193.677 124.832L193.387 124.931C192.993 125.067 192.598 125.202 192.21 125.344L192.025 125.412C191.612 125.559 191.199 125.72 190.792 125.88L190.62 125.947C190.207 126.108 189.806 126.274 189.393 126.446L189.27 126.496L189.122 126.564C188.728 126.73 188.34 126.909 187.945 127.087L187.871 127.118L187.754 127.173C187.347 127.358 186.941 127.555 186.534 127.752L186.466 127.783C186.035 127.993 185.609 128.214 185.184 128.436L185.116 128.473L185.055 128.504C184.617 128.738 184.186 128.972 183.754 129.219L183.724 129.237C183.28 129.484 182.842 129.742 182.411 130.007L182.288 129.896C182.688 128.985 183.064 128.06 183.409 127.136L183.477 126.958C183.637 126.527 183.791 126.083 183.939 125.646L183.989 125.504C184.13 125.085 184.266 124.66 184.402 124.235L184.469 124.001C184.593 123.594 184.71 123.194 184.821 122.787L184.901 122.498C185.012 122.091 185.116 121.685 185.221 121.284L185.283 121.032C185.381 120.613 185.486 120.188 185.585 119.762L185.616 119.608C185.714 119.159 185.807 118.709 185.893 118.253L185.918 118.142C186.004 117.68 186.09 117.231 186.164 116.762L186.183 116.682C186.343 115.721 186.485 114.766 186.596 113.812V113.787C186.657 113.306 186.706 112.826 186.756 112.345V112.315L186.762 112.272C186.811 111.803 186.848 111.341 186.879 110.879V110.848L186.891 110.738L186.978 109.413V109.364C187.002 108.902 187.027 108.446 187.039 107.984V107.873L187.07 106.641L187.076 106.277L187.082 105.169V104.854L187.064 103.739L187.052 103.296L187.021 102.181L187.008 101.971L186.953 100.856L186.941 100.672L186.922 100.456L186.861 99.5011L186.824 99.0083L186.725 97.8933V97.844L186.713 97.7393L186.608 96.7105L186.583 96.4456V96.4271L186.552 96.1253L186.454 95.2505L186.429 95.0595L186.417 94.9794L186.324 94.2648L186.25 93.6919L186.232 93.5502L186.072 92.4783L186.053 92.3367L186.022 92.1395L185.911 91.4434L185.893 91.3448L185.813 90.8274L185.801 90.7534L185.677 90.0635L185.671 90.0327L185.566 89.4352L185.554 89.3797L185.425 88.702L185.326 88.1969L185.295 88.0244L185.16 87.3591L185.061 86.8971L185.018 86.6999L184.876 86.0408L184.839 85.8621L184.734 85.3878L184.586 84.741L184.562 84.6239L184.439 84.1064L184.42 84.0202C181.363 71.2498 176.784 62.2557 176.784 62.2557C207.895 74.5394 232.817 65.2065 242.086 60.6294L245.476 58.2084L243.202 61.6027C239.886 71.3915 233.92 97.3142 250.209 126.52C250.209 126.52 239.652 122.806 225.514 121.635L225.52 121.641ZM157.359 109.598L-121.223 388.064C-132.421 399.257 -132.421 417.412 -121.223 428.605C-110.025 439.798 -91.8626 439.798 -80.6646 428.605L194.348 153.706C243.652 146.018 291.235 162.762 291.235 162.762C256.742 100.918 269.376 46.0232 276.395 25.2998L281.202 18.1107L274.029 23.2299C254.406 32.9202 201.633 52.6887 135.752 26.6797C135.752 26.6797 155.115 64.7014 157.359 109.604V109.598ZM226.587 259.947C237.785 248.754 237.785 230.599 226.587 219.406C215.389 208.213 197.227 208.213 186.029 219.406L17.5165 387.848C6.31851 399.042 6.31851 417.196 17.5165 428.389C28.7145 439.583 46.8765 439.583 58.0745 428.389L226.587 259.953V259.947ZM85.4686 124.734C96.6666 113.541 96.6666 95.386 85.4686 84.1927C74.2706 72.9993 56.1085 72.9993 44.9106 84.1927L-123.602 252.635C-134.799 263.828 -134.799 281.983 -123.602 293.176C-112.404 304.369 -94.2415 304.369 -83.0435 293.176L85.4686 124.734Z" fill="white"/>
</svg>
