<svg width="27" height="27" viewBox="0 0 27 27" fill="none" xmlns="http://www.w3.org/2000/svg">
<g clip-path="url(#clip0_45_129083)">
<rect width="27" height="27" rx="13.5" fill="#0145FE"/>
<path fill-rule="evenodd" clip-rule="evenodd" d="M13.0915 2.41797C9.80918 2.41797 6.92946 4.97727 6.92946 6.52599C6.92946 7.71321 7.65247 8.7361 8.68358 9.17155L5.43414 11.8746L5.69294 12.1951L6.77335 13.5137L7.03216 13.8342L8.77396 12.384C8.9465 12.2361 8.97114 11.9732 8.82326 11.8007L8.5398 11.4679L9.80507 10.4163V12.688C9.80507 13.0454 9.90777 13.4028 10.105 13.7232C10.3186 14.0765 10.6472 14.3764 11.0375 14.6106V16.0936L10.6267 15.8594V16.9686L11.0745 17.2233L12.6807 18.1394V17.7491C12.6807 17.5889 12.6478 17.4287 12.5903 17.2849C12.4876 17.0343 12.3027 16.8166 12.0604 16.681L11.8591 16.566V14.968C12.2452 15.083 12.6601 15.1528 13.0915 15.1528C13.5228 15.1528 13.9377 15.083 14.3239 14.968V16.566L14.1267 16.681C13.8679 16.8248 13.6789 17.059 13.5803 17.326C13.5269 17.4615 13.5023 17.6012 13.5023 17.7491V18.1435L14.8415 17.3753L15.5563 16.9686V15.8594L15.1455 16.0936V14.6106C15.5358 14.3723 15.8644 14.0765 16.078 13.7232C16.2752 13.4028 16.3779 13.0454 16.3779 12.688V9.62344C16.4847 9.5536 16.5792 9.47555 16.649 9.38928C18.1074 9.24961 19.2535 8.02131 19.2535 6.52599C19.2535 5.03067 16.3738 2.41797 13.0915 2.41797ZM15.5563 12.688C15.5563 12.8975 15.4947 13.1029 15.3797 13.296C14.9976 13.9163 14.0774 14.3312 13.0915 14.3312C12.1056 14.3312 11.1854 13.9163 10.8033 13.296C10.6883 13.1029 10.6267 12.8975 10.6267 12.688V9.96029C11.5592 10.2027 12.7341 10.2232 13.0915 10.2232C13.4489 10.2232 14.6238 10.2027 15.5563 9.96029V12.688ZM16.6121 8.55535C15.9548 7.80358 13.6214 7.7584 13.0915 7.7584C12.5616 7.7584 10.2282 7.80358 9.57092 8.55535C8.54802 8.44033 7.75106 7.57764 7.75106 6.52599C7.75106 5.57293 10.0639 3.23957 13.0915 3.23957C16.1191 3.23957 18.4319 5.57293 18.4319 6.52599C18.4319 7.57764 17.635 8.44033 16.6121 8.55535ZM0.220987 19.0843L7.33608 21.5573C7.82904 21.7299 8.16179 22.1982 8.16179 22.7199V29.821H12.6806V19.0884L10.1049 17.6177H4.99861C4.63711 17.6177 4.32079 17.3836 4.21398 17.0385C4.10717 16.6893 4.24274 16.3155 4.54262 16.1142L6.30907 14.9393C6.40356 14.8736 6.46518 14.7791 6.48161 14.6682C6.49804 14.5532 6.46929 14.4422 6.39534 14.356L4.62889 12.1869C4.55906 12.1007 4.46046 12.0473 4.34955 12.039C4.23863 12.0308 4.13593 12.0678 4.05788 12.1418L0.0813143 15.6664C0.0436618 15.7005 -0.4841 15.7408 -1.06698 15.7854H-1.06699C-1.81959 15.8429 -2.66406 15.9074 -2.66406 15.9745L-0.0542505 18.694C-0.0542505 18.7384 -0.0828598 18.8245 -0.114145 18.9187C-0.207362 19.1992 -0.324336 19.5513 0.220987 19.0843ZM13.5021 19.0883L15.6794 17.8476C18.7604 18.6446 21.676 19.8711 20.8966 26.8848L13.5021 29.8209V19.0883ZM14.3238 22.958C14.3238 23.184 14.5086 23.3688 14.7346 23.3688C14.9605 23.3688 15.1454 23.184 15.1454 22.958C15.1454 22.7321 14.9605 22.5472 14.7346 22.5472C14.5086 22.5472 14.3238 22.7321 14.3238 22.958ZM14.3238 20.904C14.3238 21.1299 14.5086 21.3148 14.7346 21.3148C14.9605 21.3148 15.1454 21.1299 15.1454 20.904C15.1454 20.6781 14.9605 20.4932 14.7346 20.4932C14.5086 20.4932 14.3238 20.6781 14.3238 20.904Z" fill="white"/>
</g>
<defs>
<clipPath id="clip0_45_129083">
<rect width="27" height="27" rx="13.5" fill="white"/>
</clipPath>
</defs>
</svg>
