<svg width="308" height="286" viewBox="0 0 308 286" fill="none" xmlns="http://www.w3.org/2000/svg">
<path opacity="0.34" fill-rule="evenodd" clip-rule="evenodd" d="M93.5053 107.262C93.5053 112.887 98.0638 117.449 103.69 117.449C109.314 117.449 113.875 112.887 113.875 107.262C113.875 103.503 114.128 99.7144 114.626 95.9263C115.105 92.2898 115.852 88.5741 116.863 84.8058C123.069 61.6352 138.076 43.1757 157.323 32.064C157.485 31.9695 157.646 31.8706 157.802 31.7695C176.943 20.8907 200.226 17.2476 223.21 23.4066C246.376 29.6162 264.832 44.6259 275.942 63.8743C276.036 64.0369 276.135 64.1973 276.236 64.3533C287.113 83.4984 290.756 106.785 284.598 129.773C279.562 148.567 268.571 164.544 253.973 175.882C239.355 187.233 221.169 193.932 201.762 194.154C196.138 194.198 191.612 198.795 191.656 204.422C191.7 210.047 196.296 214.572 201.92 214.528C226.015 214.253 248.512 206.002 266.513 192.021C284.532 178.026 298.102 158.286 304.328 135.047C311.92 106.702 307.395 77.9436 293.928 54.2743C293.825 54.0633 293.715 53.8546 293.594 53.648C279.87 29.8755 257.082 11.339 228.48 3.67265C200.14 -3.92122 171.39 0.605217 147.722 14.0747C147.512 14.1779 147.303 14.2878 147.096 14.4087C123.328 28.1352 104.795 50.9278 97.1324 79.5344C95.9482 83.9488 95.0431 88.5456 94.417 93.2917C93.8128 97.8841 93.5053 102.553 93.5053 107.264V107.262ZM218.355 103.667L218.131 103.65L217.973 103.639L217.904 103.634L217.678 103.619H217.661C217.439 103.604 217.215 103.593 216.988 103.582L216.755 103.573L216.56 103.564H216.52L216.285 103.558H216.274L215.896 103.551L215.719 103.549H215.574H215.334H215.284L214.921 103.551L214.756 103.553L214.455 103.56L214.367 103.562L214.121 103.571H214.11L214.016 103.575L213.638 103.593H213.629H213.607L213.548 103.597L213.238 103.617L212.948 103.639L212.77 103.654L212.441 103.683L212.384 103.689L212.133 103.714L212.08 103.72L212.006 103.729L211.632 103.773L211.566 103.782L211.522 103.788L211.081 103.848L211.011 103.859L210.593 103.924L210.459 103.949L210.059 104.019L209.976 104.034C209.842 104.059 209.71 104.087 209.574 104.116L209.446 104.142L209.055 104.23L208.917 104.263L208.539 104.357L208.42 104.386L208.032 104.491L207.902 104.527L207.498 104.647L207.414 104.674C207.276 104.715 207.14 104.762 207.003 104.806L206.9 104.841C206.76 104.889 206.619 104.937 206.481 104.988L206.415 105.012C206.267 105.065 206.12 105.122 205.975 105.179L205.914 105.203C205.767 105.26 205.624 105.32 205.477 105.381L205.433 105.399L205.38 105.423C205.239 105.482 205.101 105.546 204.96 105.61L204.934 105.621L204.892 105.641C204.747 105.706 204.602 105.777 204.457 105.847L204.433 105.858C204.279 105.933 204.128 106.012 203.976 106.091L203.952 106.104L203.93 106.115C203.774 106.199 203.62 106.282 203.466 106.37L203.455 106.377C203.297 106.465 203.141 106.557 202.988 106.651L202.944 106.612C203.086 106.287 203.22 105.957 203.343 105.627L203.368 105.564C203.425 105.41 203.48 105.252 203.532 105.096L203.55 105.045C203.6 104.896 203.649 104.744 203.697 104.592L203.721 104.509C203.765 104.364 203.807 104.221 203.846 104.076L203.875 103.973C203.915 103.828 203.952 103.683 203.989 103.54L204.011 103.45C204.046 103.3 204.084 103.149 204.119 102.997L204.13 102.942C204.165 102.782 204.198 102.621 204.229 102.459L204.238 102.419C204.268 102.255 204.299 102.094 204.325 101.927L204.332 101.899C204.389 101.556 204.44 101.215 204.479 100.875V100.866C204.501 100.694 204.519 100.523 204.536 100.352V100.341L204.539 100.325C204.556 100.158 204.569 99.9935 204.58 99.8287V99.8177L204.585 99.7782L204.615 99.3057V99.2882C204.624 99.1234 204.633 98.9608 204.637 98.796V98.7564L204.648 98.317L204.651 98.1873L204.653 97.7918V97.6797L204.646 97.282L204.642 97.1238L204.631 96.7261L204.626 96.6514L204.607 96.2537L204.602 96.1878L204.596 96.1109L204.574 95.7703L204.56 95.5945L204.525 95.1968V95.1792L204.521 95.1419L204.484 94.7749L204.475 94.6804V94.6738L204.464 94.5662L204.429 94.2542L204.42 94.186L204.415 94.1575L204.383 93.9026L204.356 93.6982L204.35 93.6477L204.292 93.2654L204.286 93.2148L204.275 93.1445L204.235 92.8962L204.229 92.8611L204.2 92.6765L204.196 92.6501L204.152 92.404L204.15 92.393L204.112 92.1799L204.108 92.1601L204.062 91.9184L204.027 91.7382L204.016 91.6767L203.967 91.4394L203.932 91.2746L203.917 91.2043L203.866 90.9692L203.853 90.9055L203.816 90.7363L203.763 90.5056L203.754 90.4638L203.71 90.2792L203.704 90.2485C202.614 85.6935 200.982 82.4854 200.982 82.4854C212.072 86.8668 220.956 83.5379 224.26 81.9053L225.468 81.0418L224.658 82.2525C223.476 85.744 221.349 94.9902 227.156 105.408C227.156 105.408 223.392 104.083 218.353 103.665L218.355 103.667ZM194.057 99.3717L24.0438 279.519C20.0521 283.512 20.0521 289.987 24.0438 293.98C28.0356 297.972 34.5099 297.972 38.5016 293.98L207.243 115.104C224.818 112.362 241.78 118.334 241.78 118.334C229.484 96.2757 233.988 76.6955 236.49 69.3038L238.204 66.7396L235.647 68.5655C228.652 72.0219 209.84 79.073 186.355 69.796C186.355 69.796 193.257 83.3577 194.057 99.3739V99.3717ZM218.735 152.999C222.727 149.006 222.727 142.531 218.735 138.539C214.743 134.546 208.269 134.546 204.277 138.539L63.3993 289.545C59.4075 293.538 59.4075 300.013 63.3993 304.006C67.3911 307.998 73.8653 307.998 77.8571 304.006L218.735 153.001V152.999ZM168.43 104.77C172.422 100.778 172.422 94.3025 168.43 90.31C164.439 86.3175 157.964 86.3175 153.973 90.31L2.9938 251.42C-0.997955 255.412 -0.997955 261.887 2.9938 265.88C6.98557 269.872 13.4598 269.872 17.4516 265.88L168.43 104.77Z" fill="white"/>
</svg>
