<svg width="128" height="128" viewBox="0 0 128 128" fill="none" xmlns="http://www.w3.org/2000/svg">
<g clip-path="url(#clip0_82_350)">
<rect width="128" height="128" rx="64" fill="white"/>
<path fill-rule="evenodd" clip-rule="evenodd" d="M62.0629 11.4629C46.5023 11.4629 32.8503 23.5959 32.8503 30.9379C32.8503 36.5662 36.2779 41.4155 41.1661 43.4799L25.7613 56.2945L26.9883 57.8135L32.1102 64.065L33.3371 65.5841L41.5946 58.7094C42.4125 58.0083 42.5294 56.7619 41.8283 55.9439L40.4845 54.3664L46.4828 49.3808V60.1505C46.4828 61.8449 46.9697 63.5392 47.9045 65.0583C48.9172 66.7331 50.4752 68.1548 52.3253 69.2649V76.2954L50.3778 75.1853V80.4435L52.5006 81.651L60.1154 85.9939V84.1438C60.1154 83.3843 59.9596 82.6247 59.6869 81.9431C59.2 80.7551 58.3237 79.723 57.1746 79.0803L56.2203 78.535V70.9592C58.051 71.5045 60.018 71.8356 62.0629 71.8356C64.1077 71.8356 66.0747 71.5045 67.9054 70.9592V78.535L66.9706 79.0803C65.7437 79.7619 64.8478 80.872 64.3804 82.1379C64.1272 82.7806 64.0104 83.4427 64.0104 84.1438V86.0134L70.3592 82.3716L73.7479 80.4435V75.1853L71.8004 76.2954V69.2649C73.6505 68.1353 75.2085 66.7331 76.2212 65.0583C77.156 63.5392 77.6429 61.8449 77.6429 60.1505V45.6221C78.1493 45.2911 78.5972 44.921 78.9283 44.5121C85.8419 43.8499 91.2755 38.0269 91.2755 30.9379C91.2755 23.849 77.6234 11.4629 62.0629 11.4629ZM73.7479 60.1505C73.7479 61.1438 73.4558 62.1175 72.9105 63.0328C71.0993 65.9736 66.7369 67.9406 62.0629 67.9406C57.3888 67.9406 53.0264 65.9736 51.2153 63.0328C50.67 62.1175 50.3778 61.1438 50.3778 60.1505V47.2191C54.7987 48.3681 60.3685 48.4655 62.0629 48.4655C63.7572 48.4655 69.3271 48.3681 73.7479 47.2191V60.1505ZM78.753 40.5586C75.637 36.9947 64.5751 36.7805 62.0629 36.7805C59.5506 36.7805 48.4887 36.9947 45.3727 40.5586C40.5234 40.0133 36.7453 35.9236 36.7453 30.9379C36.7453 26.4197 47.7097 15.3579 62.0629 15.3579C76.416 15.3579 87.3804 26.4197 87.3804 30.9379C87.3804 35.9236 83.6023 40.0133 78.753 40.5586ZM1.04714 90.4737L34.7779 102.198C37.115 103.016 38.6924 105.236 38.6924 107.709V141.374H60.115V90.4931L47.9041 83.5211H23.6966C21.9828 83.5211 20.4833 82.411 19.9769 80.7751C19.4706 79.1197 20.1132 77.3475 21.5349 76.3932L29.9092 70.8233C30.3571 70.5117 30.6492 70.0638 30.7271 69.538C30.805 68.9927 30.6687 68.4669 30.3182 68.0579L21.9439 57.775C21.6128 57.3661 21.1454 57.1129 20.6196 57.0739C20.0938 57.035 19.6069 57.2103 19.2368 57.5608L0.384992 74.2704C0.206492 74.4319 -2.29546 74.6231 -5.0587 74.8342L-5.05883 74.8342L-5.05892 74.8343C-8.62676 75.1069 -12.6301 75.4128 -12.6301 75.731L-0.257686 88.6235C-0.257686 88.834 -0.393315 89.2421 -0.541629 89.6885C-0.98355 91.0185 -1.53809 92.6874 1.04714 90.4737ZM64.0097 90.4924L74.3314 84.611C88.9377 88.3891 102.76 94.2037 99.0648 127.454L64.0097 141.373V90.4924ZM67.9047 108.838C67.9047 109.909 68.7811 110.785 69.8522 110.785C70.9233 110.785 71.7997 109.909 71.7997 108.838C71.7997 107.767 70.9233 106.89 69.8522 106.89C68.7811 106.89 67.9047 107.767 67.9047 108.838ZM67.9047 99.1004C67.9047 100.172 68.7811 101.048 69.8522 101.048C70.9233 101.048 71.7997 100.172 71.7997 99.1004C71.7997 98.0293 70.9233 97.1529 69.8522 97.1529C68.7811 97.1529 67.9047 98.0293 67.9047 99.1004Z" fill="#0145FE"/>
</g>
<defs>
<clipPath id="clip0_82_350">
<rect width="128" height="128" rx="64" fill="white"/>
</clipPath>
</defs>
</svg>
