<svg width="655" height="413" viewBox="0 0 655 413" fill="none" xmlns="http://www.w3.org/2000/svg">
<path d="M289.778 41V14.12H281.462V9.71H302.882V14.12H294.692V41H289.778ZM303.624 41V18.278H308.16V22.856L307.74 22.184C308.244 20.7 309.056 19.636 310.176 18.992C311.296 18.32 312.64 17.984 314.208 17.984H315.594V22.31H313.62C312.052 22.31 310.778 22.8 309.798 23.78C308.846 24.732 308.37 26.104 308.37 27.896V41H303.624ZM326.946 41.504C325.238 41.504 323.74 41.126 322.452 40.37C321.164 39.586 320.156 38.508 319.428 37.136C318.728 35.736 318.378 34.126 318.378 32.306V18.278H323.124V31.886C323.124 32.922 323.334 33.832 323.754 34.616C324.174 35.4 324.762 36.016 325.518 36.464C326.274 36.884 327.142 37.094 328.122 37.094C329.13 37.094 330.012 36.87 330.768 36.422C331.524 35.974 332.112 35.344 332.532 34.532C332.98 33.72 333.204 32.768 333.204 31.676V18.278H337.908V41H333.414V36.548L333.918 37.136C333.386 38.536 332.504 39.614 331.272 40.37C330.04 41.126 328.598 41.504 326.946 41.504ZM351.85 41.504C349.526 41.504 347.482 40.93 345.718 39.782C343.982 38.634 342.764 37.094 342.064 35.162L345.718 33.44C346.334 34.728 347.174 35.75 348.238 36.506C349.33 37.262 350.534 37.64 351.85 37.64C352.97 37.64 353.88 37.388 354.58 36.884C355.28 36.38 355.63 35.694 355.63 34.826C355.63 34.266 355.476 33.818 355.168 33.482C354.86 33.118 354.468 32.824 353.992 32.6C353.544 32.376 353.082 32.208 352.606 32.096L349.036 31.088C347.076 30.528 345.606 29.688 344.626 28.568C343.674 27.42 343.198 26.09 343.198 24.578C343.198 23.206 343.548 22.016 344.248 21.008C344.948 19.972 345.914 19.174 347.146 18.614C348.378 18.054 349.764 17.774 351.304 17.774C353.376 17.774 355.224 18.292 356.848 19.328C358.472 20.336 359.62 21.75 360.292 23.57L356.638 25.292C356.19 24.2 355.476 23.332 354.496 22.688C353.544 22.044 352.466 21.722 351.262 21.722C350.226 21.722 349.4 21.974 348.784 22.478C348.168 22.954 347.86 23.584 347.86 24.368C347.86 24.9 348 25.348 348.28 25.712C348.56 26.048 348.924 26.328 349.372 26.552C349.82 26.748 350.282 26.916 350.758 27.056L354.454 28.148C356.33 28.68 357.772 29.52 358.78 30.668C359.788 31.788 360.292 33.132 360.292 34.7C360.292 36.044 359.928 37.234 359.2 38.27C358.5 39.278 357.52 40.076 356.26 40.664C355 41.224 353.53 41.504 351.85 41.504ZM374.77 41.252C372.39 41.252 370.542 40.58 369.226 39.236C367.91 37.892 367.252 36.002 367.252 33.566V22.562H363.262V18.278H363.892C364.956 18.278 365.782 17.97 366.37 17.354C366.958 16.738 367.252 15.898 367.252 14.834V13.07H371.998V18.278H377.164V22.562H371.998V33.356C371.998 34.14 372.124 34.812 372.376 35.372C372.628 35.904 373.034 36.324 373.594 36.632C374.154 36.912 374.882 37.052 375.778 37.052C376.002 37.052 376.254 37.038 376.534 37.01C376.814 36.982 377.08 36.954 377.332 36.926V41C376.94 41.056 376.506 41.112 376.03 41.168C375.554 41.224 375.134 41.252 374.77 41.252Z" fill="black"/>
<path fill-rule="evenodd" clip-rule="evenodd" d="M362.37 341.071V356.653C362.37 360.167 359.518 363.018 356.005 363.018C352.491 363.018 349.64 360.167 349.64 356.653V341.071C350.862 341.173 352.084 341.25 353.319 341.3C354.21 341.339 355.101 341.351 356.005 341.351C356.909 341.351 357.8 341.339 358.691 341.3C359.926 341.25 361.148 341.186 362.37 341.071Z" fill="#0145FE"/>
<path fill-rule="evenodd" clip-rule="evenodd" d="M358.693 341.299L345.186 354.806C342.704 357.288 338.668 357.288 336.186 354.806C333.703 352.323 333.703 348.288 336.186 345.805L341.991 340C344.511 340.497 347.058 340.853 349.642 341.07C350.864 341.171 352.086 341.248 353.321 341.299C354.212 341.337 355.103 341.35 356.007 341.35C356.911 341.35 357.802 341.337 358.693 341.299Z" fill="#0145FE"/>
<path fill-rule="evenodd" clip-rule="evenodd" d="M370.013 339.99L375.818 345.795C378.301 348.277 378.301 352.313 375.818 354.795C373.336 357.278 369.3 357.278 366.818 354.795L353.311 341.288C354.202 341.327 355.093 341.339 355.997 341.339C356.901 341.339 357.792 341.327 358.683 341.288C359.918 341.238 361.14 341.174 362.362 341.059C364.946 340.83 367.492 340.474 370.013 339.99Z" fill="#0145FE"/>
<path fill-rule="evenodd" clip-rule="evenodd" d="M337.281 116.537C337.014 109.828 336.11 97.9504 333.348 79.6448C333.233 78.8046 333.679 78.0026 334.443 77.6461C335.206 77.2897 336.11 77.4934 336.67 78.1172C344.499 88.2126 349.872 102.42 352.94 112.236C353.233 113.165 353.5 114.069 353.755 114.909C353.233 114.896 352.711 114.896 352.189 114.909C346.906 114.935 341.699 115.444 337.294 116.539L337.281 116.537Z" fill="#0145FE"/>
<path fill-rule="evenodd" clip-rule="evenodd" d="M374.372 116.443C368.961 115.158 362.405 114.725 356.002 114.967C355.251 114.941 354.487 114.916 353.736 114.916C353.214 114.903 352.692 114.903 352.17 114.916C352.399 114.076 352.654 113.184 352.921 112.242C356.689 99.219 364.149 77.7685 375.581 63.5853C376.141 62.9615 377.045 62.7705 377.809 63.127C378.573 63.4835 379.006 64.2855 378.891 65.1257C374.97 91.6814 374.321 108.04 374.372 116.455L374.372 116.443Z" fill="#0145FE"/>
<path fill-rule="evenodd" clip-rule="evenodd" d="M332.987 324.067C306.38 313.055 287.309 282.896 287.309 242.35C287.309 200.198 325.374 173.07 335.887 158.317C331.394 174.064 319.529 201.332 319.529 242.35C319.529 279.728 325.259 308.867 332.987 324.067ZM376.117 158.33C386.632 173.084 424.695 200.202 424.695 242.363C424.695 282.909 405.625 313.068 379.017 324.08C386.757 308.879 392.473 279.751 392.473 242.363C392.473 201.345 380.61 174.077 376.117 158.33ZM356.002 328.626C342.89 328.626 332.26 293.872 332.26 242.363C332.26 199.194 346.06 171.786 349.306 157.287C351.254 148.566 350.452 143.436 352.056 129.878C352.731 128.439 353.66 127.816 354.64 127.663C355.098 127.676 355.557 127.688 356.015 127.714C356.473 127.688 356.932 127.676 357.39 127.663C358.37 127.816 359.3 128.439 359.974 129.878C361.578 143.436 360.776 148.579 362.724 157.287C365.97 171.787 379.77 199.181 379.77 242.363C379.77 293.872 369.128 328.626 356.028 328.626H356.002ZM303.412 319.295C268.071 305.673 244 278.035 244 242.366C244 207.458 286.546 182.863 310.911 167.053C306.9 171.254 302.585 175.952 298.448 181.158C285.666 197.275 274.565 217.62 274.565 242.353C274.565 275.298 285.883 301.97 303.4 319.282L303.412 319.295ZM401.068 167.05C425.434 182.849 467.979 207.445 467.979 242.362C467.979 278.032 443.905 305.685 408.567 319.291C426.084 301.978 437.402 275.308 437.402 242.362C437.402 217.627 426.288 197.271 413.519 181.168C409.382 175.948 405.066 171.263 401.056 167.063L401.068 167.05Z" fill="#0145FE"/>
<path fill-rule="evenodd" clip-rule="evenodd" d="M332.983 324.062C306.376 313.05 287.304 282.891 287.304 242.346C287.304 200.194 325.369 173.066 335.883 158.312C331.389 174.06 319.524 201.328 319.524 242.346C319.524 279.723 325.255 308.862 332.983 324.062ZM376.112 158.325C386.628 173.08 424.691 200.197 424.691 242.359C424.691 282.904 405.621 313.063 379.013 324.075C386.753 308.875 392.469 279.746 392.469 242.359C392.469 201.341 380.606 174.073 376.112 158.325ZM357.246 127.632C357.844 127.606 358.442 127.606 359.028 127.619C358.48 127.632 357.92 127.632 357.373 127.657C358.353 127.81 359.282 128.434 359.957 129.872C361.561 143.43 360.759 148.573 362.707 157.281C365.953 171.781 379.753 199.176 379.753 242.358C379.753 293.866 369.111 328.62 356.011 328.62C342.898 328.62 332.268 293.866 332.268 242.358C332.268 199.189 346.068 171.781 349.314 157.281C351.262 148.561 350.46 143.43 352.064 129.872C352.739 128.434 353.668 127.81 354.648 127.657C354.101 127.644 353.541 127.632 352.993 127.619C353.592 127.606 354.177 127.619 354.776 127.632C355.196 127.644 355.603 127.67 356.023 127.695C356.443 127.67 356.851 127.644 357.271 127.632H357.246ZM332.983 324.062C306.376 313.05 287.304 282.891 287.304 242.346C287.304 200.194 325.369 173.066 335.883 158.312C331.389 174.06 319.524 201.328 319.524 242.346C319.524 279.723 325.255 308.862 332.983 324.062Z" fill="#0145FE"/>
<path fill-rule="evenodd" clip-rule="evenodd" d="M356.009 328.622C342.897 328.622 332.266 293.867 332.266 242.359C332.266 199.19 346.066 171.782 349.313 157.282C351.26 148.562 350.458 143.432 352.062 129.873C353.043 127.773 354.57 127.416 356.021 127.709C357.473 127.416 359 127.773 359.98 129.873C361.585 143.432 360.782 148.575 362.73 157.282C365.977 171.782 379.777 199.177 379.777 242.359C379.777 293.867 369.134 328.622 356.034 328.622H356.009Z" fill="#0145FE"/>
<path d="M445 252.66V229H452.717C455.279 229 457.502 229.508 459.387 230.524C461.271 231.541 462.732 232.938 463.769 234.717C464.807 236.495 465.325 238.528 465.325 240.814C465.325 243.101 464.807 245.144 463.769 246.943C462.732 248.722 461.271 250.119 459.387 251.136C457.502 252.152 455.279 252.66 452.717 252.66H445ZM449.923 248.373H452.844C454.39 248.373 455.724 248.066 456.846 247.452C457.968 246.816 458.836 245.938 459.45 244.816C460.085 243.672 460.403 242.339 460.403 240.814C460.403 239.269 460.085 237.935 459.45 236.813C458.836 235.69 457.968 234.822 456.846 234.208C455.724 233.594 454.39 233.287 452.844 233.287H449.923V248.373Z" fill="white"/>
<path d="M400 257.66V231H417.928V235.831H405.547V241.879H417.213V246.71H405.547V252.829H417.928V257.66H400Z" fill="#F3F6FF"/>
<path d="M258.204 232.827H252V229H268.96V232.827H262.756V249.7H258.204V232.827Z" fill="white"/>
<path d="M298.98 251V228.65H303.63V251H298.98Z" fill="white"/>
<path d="M204.977 257.504C202.709 257.504 200.693 256.986 198.929 255.95C197.193 254.886 195.835 253.458 194.855 251.666C193.875 249.846 193.385 247.816 193.385 245.576C193.385 243.28 193.875 241.25 194.855 239.486C195.863 237.722 197.207 236.336 198.887 235.328C200.567 234.292 202.471 233.774 204.599 233.774C206.307 233.774 207.833 234.068 209.177 234.656C210.521 235.244 211.655 236.056 212.579 237.092C213.503 238.1 214.203 239.262 214.679 240.578C215.183 241.894 215.435 243.294 215.435 244.778C215.435 245.142 215.421 245.52 215.393 245.912C215.365 246.304 215.309 246.668 215.225 247.004H197.123V243.224H212.537L210.269 244.946C210.549 243.574 210.451 242.356 209.975 241.292C209.527 240.2 208.827 239.346 207.875 238.73C206.951 238.086 205.859 237.764 204.599 237.764C203.339 237.764 202.219 238.086 201.239 238.73C200.259 239.346 199.503 240.242 198.971 241.418C198.439 242.566 198.229 243.966 198.341 245.618C198.201 247.158 198.411 248.502 198.971 249.65C199.559 250.798 200.371 251.694 201.407 252.338C202.471 252.982 203.675 253.304 205.019 253.304C206.391 253.304 207.553 252.996 208.505 252.38C209.485 251.764 210.255 250.966 210.815 249.986L214.679 251.876C214.231 252.94 213.531 253.906 212.579 254.774C211.655 255.614 210.535 256.286 209.219 256.79C207.931 257.266 206.517 257.504 204.977 257.504Z" fill="black"/>
<path d="M179.633 257.504C177.365 257.504 175.349 256.986 173.585 255.95C171.849 254.886 170.463 253.458 169.427 251.666C168.419 249.874 167.915 247.844 167.915 245.576C167.915 243.336 168.419 241.32 169.427 239.528C170.435 237.736 171.821 236.336 173.585 235.328C175.349 234.292 177.365 233.774 179.633 233.774C181.173 233.774 182.615 234.054 183.959 234.614C185.303 235.146 186.465 235.888 187.445 236.84C188.453 237.792 189.195 238.898 189.671 240.158L185.513 242.09C185.037 240.914 184.267 239.976 183.203 239.276C182.167 238.548 180.977 238.184 179.633 238.184C178.345 238.184 177.183 238.506 176.147 239.15C175.139 239.766 174.341 240.648 173.753 241.796C173.165 242.916 172.871 244.19 172.871 245.618C172.871 247.046 173.165 248.334 173.753 249.482C174.341 250.602 175.139 251.484 176.147 252.128C177.183 252.772 178.345 253.094 179.633 253.094C181.005 253.094 182.195 252.744 183.203 252.044C184.239 251.316 185.009 250.35 185.513 249.146L189.671 251.12C189.223 252.324 188.495 253.416 187.487 254.396C186.507 255.348 185.345 256.104 184.001 256.664C182.657 257.224 181.201 257.504 179.633 257.504Z" fill="black"/>
<path d="M144.229 257V234.278H148.765V238.73L148.219 238.142C148.779 236.714 149.675 235.636 150.907 234.908C152.139 234.152 153.567 233.774 155.191 233.774C156.871 233.774 158.355 234.138 159.643 234.866C160.931 235.594 161.939 236.602 162.667 237.89C163.395 239.178 163.759 240.662 163.759 242.342V257H159.055V243.602C159.055 242.454 158.845 241.488 158.425 240.704C158.005 239.892 157.403 239.276 156.619 238.856C155.863 238.408 154.995 238.184 154.015 238.184C153.035 238.184 152.153 238.408 151.369 238.856C150.613 239.276 150.025 239.892 149.605 240.704C149.185 241.516 148.975 242.482 148.975 243.602V257H144.229Z" fill="black"/>
<path d="M129.14 257.504C126.872 257.504 124.856 256.986 123.092 255.95C121.356 254.886 119.998 253.458 119.018 251.666C118.038 249.846 117.548 247.816 117.548 245.576C117.548 243.28 118.038 241.25 119.018 239.486C120.026 237.722 121.37 236.336 123.05 235.328C124.73 234.292 126.634 233.774 128.762 233.774C130.47 233.774 131.996 234.068 133.34 234.656C134.684 235.244 135.818 236.056 136.742 237.092C137.666 238.1 138.366 239.262 138.842 240.578C139.346 241.894 139.598 243.294 139.598 244.778C139.598 245.142 139.584 245.52 139.556 245.912C139.528 246.304 139.472 246.668 139.388 247.004H121.286V243.224H136.7L134.432 244.946C134.712 243.574 134.614 242.356 134.138 241.292C133.69 240.2 132.99 239.346 132.038 238.73C131.114 238.086 130.022 237.764 128.762 237.764C127.502 237.764 126.382 238.086 125.402 238.73C124.422 239.346 123.666 240.242 123.134 241.418C122.602 242.566 122.392 243.966 122.504 245.618C122.364 247.158 122.574 248.502 123.134 249.65C123.722 250.798 124.534 251.694 125.57 252.338C126.634 252.982 127.838 253.304 129.182 253.304C130.554 253.304 131.716 252.996 132.668 252.38C133.648 251.764 134.418 250.966 134.978 249.986L138.842 251.876C138.394 252.94 137.694 253.906 136.742 254.774C135.818 255.614 134.698 256.286 133.382 256.79C132.094 257.266 130.68 257.504 129.14 257.504Z" fill="black"/>
<path d="M108.177 257V225.206H112.923V257H108.177Z" fill="black"/>
<path d="M97.8818 257V225.206H102.628V257H97.8818Z" fill="black"/>
<path d="M82.792 257.504C80.524 257.504 78.5079 256.986 76.7439 255.95C75.0079 254.886 73.65 253.458 72.67 251.666C71.69 249.846 71.2 247.816 71.2 245.576C71.2 243.28 71.69 241.25 72.67 239.486C73.678 237.722 75.0219 236.336 76.702 235.328C78.382 234.292 80.286 233.774 82.414 233.774C84.122 233.774 85.648 234.068 86.992 234.656C88.336 235.244 89.47 236.056 90.394 237.092C91.318 238.1 92.018 239.262 92.4939 240.578C92.9979 241.894 93.25 243.294 93.25 244.778C93.25 245.142 93.236 245.52 93.208 245.912C93.18 246.304 93.124 246.668 93.04 247.004H74.938V243.224H90.352L88.084 244.946C88.364 243.574 88.266 242.356 87.79 241.292C87.342 240.2 86.6419 239.346 85.6899 238.73C84.7659 238.086 83.674 237.764 82.414 237.764C81.154 237.764 80.034 238.086 79.054 238.73C78.074 239.346 77.3179 240.242 76.7859 241.418C76.254 242.566 76.044 243.966 76.156 245.618C76.016 247.158 76.2259 248.502 76.7859 249.65C77.374 250.798 78.186 251.694 79.222 252.338C80.286 252.982 81.49 253.304 82.834 253.304C84.206 253.304 85.368 252.996 86.32 252.38C87.3 251.764 88.07 250.966 88.63 249.986L92.4939 251.876C92.0459 252.94 91.346 253.906 90.394 254.774C89.47 255.614 88.35 256.286 87.034 256.79C85.746 257.266 84.332 257.504 82.792 257.504Z" fill="black"/>
<path d="M57.4473 257.504C55.1793 257.504 53.1632 256.986 51.3993 255.95C49.6632 254.886 48.2772 253.458 47.2412 251.666C46.2332 249.874 45.7292 247.844 45.7292 245.576C45.7292 243.336 46.2332 241.32 47.2412 239.528C48.2492 237.736 49.6353 236.336 51.3993 235.328C53.1632 234.292 55.1793 233.774 57.4473 233.774C58.9873 233.774 60.4292 234.054 61.7732 234.614C63.1172 235.146 64.2792 235.888 65.2592 236.84C66.2672 237.792 67.0093 238.898 67.4853 240.158L63.3272 242.09C62.8512 240.914 62.0812 239.976 61.0173 239.276C59.9812 238.548 58.7913 238.184 57.4473 238.184C56.1593 238.184 54.9973 238.506 53.9613 239.15C52.9533 239.766 52.1552 240.648 51.5672 241.796C50.9792 242.916 50.6852 244.19 50.6852 245.618C50.6852 247.046 50.9792 248.334 51.5672 249.482C52.1552 250.602 52.9533 251.484 53.9613 252.128C54.9973 252.772 56.1593 253.094 57.4473 253.094C58.8193 253.094 60.0092 252.744 61.0173 252.044C62.0532 251.316 62.8232 250.35 63.3272 249.146L67.4853 251.12C67.0373 252.324 66.3093 253.416 65.3013 254.396C64.3213 255.348 63.1592 256.104 61.8152 256.664C60.4712 257.224 59.0153 257.504 57.4473 257.504Z" fill="black"/>
<path d="M22.729 257L30.667 245.618L22.729 234.278H28.315L34.825 243.77H32.137L38.647 234.278H44.233L36.253 245.618L44.191 257H38.605L32.179 247.466H34.783L28.315 257H22.729Z" fill="black"/>
<path d="M0.234375 257V225.71H20.8564V230.12H5.19038V239.108H20.0164V243.518H5.19038V252.59H20.8564V257H0.234375Z" fill="black"/>
<path d="M443.985 412V389.278H448.521V393.73L447.975 393.142C448.535 391.714 449.431 390.636 450.663 389.908C451.895 389.152 453.323 388.774 454.947 388.774C456.627 388.774 458.111 389.138 459.399 389.866C460.687 390.594 461.695 391.602 462.423 392.89C463.151 394.178 463.515 395.662 463.515 397.342V412H458.811V398.602C458.811 397.454 458.601 396.488 458.181 395.704C457.761 394.892 457.159 394.276 456.375 393.856C455.619 393.408 454.751 393.184 453.771 393.184C452.791 393.184 451.909 393.408 451.125 393.856C450.369 394.276 449.781 394.892 449.361 395.704C448.941 396.516 448.731 397.482 448.731 398.602V412H443.985Z" fill="black"/>
<path d="M427.508 412.504C425.324 412.504 423.322 411.986 421.502 410.95C419.71 409.914 418.282 408.5 417.218 406.708C416.154 404.916 415.622 402.886 415.622 400.618C415.622 398.322 416.154 396.292 417.218 394.528C418.282 392.736 419.71 391.336 421.502 390.328C423.294 389.292 425.296 388.774 427.508 388.774C429.748 388.774 431.75 389.292 433.514 390.328C435.306 391.336 436.72 392.736 437.756 394.528C438.82 396.292 439.352 398.322 439.352 400.618C439.352 402.914 438.82 404.958 437.756 406.75C436.692 408.542 435.264 409.956 433.472 410.992C431.68 412 429.692 412.504 427.508 412.504ZM427.508 408.094C428.852 408.094 430.042 407.772 431.078 407.128C432.114 406.484 432.926 405.602 433.514 404.482C434.13 403.334 434.438 402.046 434.438 400.618C434.438 399.19 434.13 397.916 433.514 396.796C432.926 395.676 432.114 394.794 431.078 394.15C430.042 393.506 428.852 393.184 427.508 393.184C426.192 393.184 425.002 393.506 423.938 394.15C422.902 394.794 422.076 395.676 421.46 396.796C420.872 397.916 420.578 399.19 420.578 400.618C420.578 402.046 420.872 403.334 421.46 404.482C422.076 405.602 422.902 406.484 423.938 407.128C425.002 407.772 426.192 408.094 427.508 408.094Z" fill="black"/>
<path d="M406.251 412V389.278H410.997V412H406.251ZM406.251 386.17V380.71H410.997V386.17H406.251Z" fill="black"/>
<path d="M399.057 412.252C396.677 412.252 394.829 411.58 393.513 410.236C392.197 408.892 391.539 407.002 391.539 404.566V393.562H387.549V389.278H388.179C389.243 389.278 390.069 388.97 390.657 388.354C391.245 387.738 391.539 386.898 391.539 385.834V384.07H396.285V389.278H401.451V393.562H396.285V404.356C396.285 405.14 396.411 405.812 396.663 406.372C396.915 406.904 397.321 407.324 397.881 407.632C398.441 407.912 399.169 408.052 400.065 408.052C400.289 408.052 400.541 408.038 400.821 408.01C401.101 407.982 401.367 407.954 401.619 407.926V412C401.227 412.056 400.793 412.112 400.317 412.168C399.841 412.224 399.421 412.252 399.057 412.252Z" fill="black"/>
<path d="M372.162 412.504C370.622 412.504 369.264 412.238 368.088 411.706C366.94 411.146 366.044 410.39 365.4 409.438C364.756 408.458 364.434 407.31 364.434 405.994C364.434 404.762 364.7 403.656 365.232 402.676C365.792 401.696 366.646 400.87 367.794 400.198C368.942 399.526 370.384 399.05 372.12 398.77L380.016 397.468V401.206L373.044 402.424C371.784 402.648 370.86 403.054 370.272 403.642C369.684 404.202 369.39 404.93 369.39 405.826C369.39 406.694 369.712 407.408 370.356 407.968C371.028 408.5 371.882 408.766 372.918 408.766C374.206 408.766 375.326 408.486 376.278 407.926C377.258 407.366 378.014 406.624 378.546 405.7C379.078 404.748 379.344 403.698 379.344 402.55V396.712C379.344 395.592 378.924 394.682 378.084 393.982C377.272 393.254 376.18 392.89 374.808 392.89C373.548 392.89 372.442 393.226 371.49 393.898C370.566 394.542 369.88 395.382 369.432 396.418L365.484 394.444C365.904 393.324 366.59 392.344 367.542 391.504C368.494 390.636 369.6 389.964 370.86 389.488C372.148 389.012 373.506 388.774 374.934 388.774C376.726 388.774 378.308 389.11 379.68 389.782C381.08 390.454 382.158 391.392 382.914 392.596C383.698 393.772 384.09 395.144 384.09 396.712V412H379.554V407.884L380.52 408.01C379.988 408.934 379.302 409.732 378.462 410.404C377.65 411.076 376.712 411.594 375.648 411.958C374.612 412.322 373.45 412.504 372.162 412.504Z" fill="black"/>
<path d="M350.887 412.504C348.619 412.504 346.603 411.986 344.839 410.95C343.103 409.886 341.717 408.458 340.681 406.666C339.673 404.874 339.169 402.844 339.169 400.576C339.169 398.336 339.673 396.32 340.681 394.528C341.689 392.736 343.075 391.336 344.839 390.328C346.603 389.292 348.619 388.774 350.887 388.774C352.427 388.774 353.869 389.054 355.213 389.614C356.557 390.146 357.719 390.888 358.699 391.84C359.707 392.792 360.449 393.898 360.925 395.158L356.767 397.09C356.291 395.914 355.521 394.976 354.457 394.276C353.421 393.548 352.231 393.184 350.887 393.184C349.599 393.184 348.437 393.506 347.401 394.15C346.393 394.766 345.595 395.648 345.007 396.796C344.419 397.916 344.125 399.19 344.125 400.618C344.125 402.046 344.419 403.334 345.007 404.482C345.595 405.602 346.393 406.484 347.401 407.128C348.437 407.772 349.599 408.094 350.887 408.094C352.259 408.094 353.449 407.744 354.457 407.044C355.493 406.316 356.263 405.35 356.767 404.146L360.925 406.12C360.477 407.324 359.749 408.416 358.741 409.396C357.761 410.348 356.599 411.104 355.255 411.664C353.911 412.224 352.455 412.504 350.887 412.504Z" fill="black"/>
<path d="M329.798 412V389.278H334.544V412H329.798ZM329.798 386.17V380.71H334.544V386.17H329.798Z" fill="black"/>
<path d="M312.161 412.504C309.977 412.504 308.017 411.986 306.281 410.95C304.573 409.886 303.215 408.458 302.207 406.666C301.227 404.874 300.737 402.858 300.737 400.618C300.737 398.378 301.241 396.362 302.249 394.57C303.257 392.778 304.615 391.364 306.323 390.328C308.031 389.292 309.963 388.774 312.119 388.774C313.939 388.774 315.549 389.138 316.949 389.866C318.349 390.594 319.455 391.602 320.267 392.89L319.553 393.982V380.206H324.257V412H319.763V407.38L320.309 408.262C319.525 409.634 318.405 410.684 316.949 411.412C315.493 412.14 313.897 412.504 312.161 412.504ZM312.623 408.094C313.939 408.094 315.115 407.772 316.151 407.128C317.215 406.484 318.041 405.602 318.629 404.482C319.245 403.334 319.553 402.046 319.553 400.618C319.553 399.19 319.245 397.916 318.629 396.796C318.041 395.676 317.215 394.794 316.151 394.15C315.115 393.506 313.939 393.184 312.623 393.184C311.307 393.184 310.117 393.506 309.053 394.15C307.989 394.794 307.163 395.676 306.575 396.796C305.987 397.916 305.693 399.19 305.693 400.618C305.693 402.046 305.987 403.334 306.575 404.482C307.163 405.602 307.975 406.484 309.011 407.128C310.075 407.772 311.279 408.094 312.623 408.094Z" fill="black"/>
<path d="M286.571 412.504C284.303 412.504 282.287 411.986 280.523 410.95C278.787 409.886 277.429 408.458 276.449 406.666C275.469 404.846 274.979 402.816 274.979 400.576C274.979 398.28 275.469 396.25 276.449 394.486C277.457 392.722 278.801 391.336 280.481 390.328C282.161 389.292 284.065 388.774 286.193 388.774C287.901 388.774 289.427 389.068 290.771 389.656C292.115 390.244 293.249 391.056 294.173 392.092C295.097 393.1 295.797 394.262 296.273 395.578C296.777 396.894 297.029 398.294 297.029 399.778C297.029 400.142 297.015 400.52 296.987 400.912C296.959 401.304 296.903 401.668 296.819 402.004H278.717V398.224H294.131L291.863 399.946C292.143 398.574 292.045 397.356 291.569 396.292C291.121 395.2 290.421 394.346 289.469 393.73C288.545 393.086 287.453 392.764 286.193 392.764C284.933 392.764 283.813 393.086 282.833 393.73C281.853 394.346 281.097 395.242 280.565 396.418C280.033 397.566 279.823 398.966 279.935 400.618C279.795 402.158 280.005 403.502 280.565 404.65C281.153 405.798 281.965 406.694 283.001 407.338C284.065 407.982 285.269 408.304 286.613 408.304C287.985 408.304 289.147 407.996 290.099 407.38C291.079 406.764 291.849 405.966 292.409 404.986L296.273 406.876C295.825 407.94 295.125 408.906 294.173 409.774C293.249 410.614 292.129 411.286 290.813 411.79C289.525 412.266 288.111 412.504 286.571 412.504Z" fill="black"/>
<path d="M245.234 412V380.71H255.482C258.73 380.71 261.544 381.368 263.924 382.684C266.332 383.972 268.194 385.792 269.51 388.144C270.826 390.496 271.484 393.226 271.484 396.334C271.484 399.414 270.826 402.144 269.51 404.524C268.194 406.876 266.332 408.71 263.924 410.026C261.544 411.342 258.73 412 255.482 412H245.234ZM250.19 407.59H255.566C257.778 407.59 259.696 407.128 261.32 406.204C262.972 405.28 264.246 403.978 265.142 402.298C266.038 400.618 266.486 398.63 266.486 396.334C266.486 394.038 266.024 392.064 265.1 390.412C264.204 388.732 262.944 387.43 261.32 386.506C259.696 385.582 257.778 385.12 255.566 385.12H250.19V407.59Z" fill="black"/>
<path d="M636.265 171.24C635.705 171.24 635.145 171.184 634.585 171.072C634.053 170.988 633.563 170.848 633.115 170.652V166.578C633.451 166.662 633.857 166.732 634.333 166.788C634.809 166.872 635.271 166.914 635.719 166.914C637.035 166.914 638.001 166.62 638.617 166.032C639.261 165.472 639.835 164.604 640.339 163.428L641.851 159.984L641.767 163.974L631.939 139.278H637.021L644.287 158.22H642.565L649.789 139.278H654.913L644.875 164.478C644.343 165.822 643.671 166.998 642.859 168.006C642.075 169.042 641.137 169.84 640.045 170.4C638.981 170.96 637.721 171.24 636.265 171.24Z" fill="black"/>
<path d="M627.055 162.252C624.675 162.252 622.827 161.58 621.511 160.236C620.195 158.892 619.537 157.002 619.537 154.566V143.562H615.547V139.278H616.177C617.241 139.278 618.067 138.97 618.655 138.354C619.243 137.738 619.537 136.898 619.537 135.834V134.07H624.283V139.278H629.449V143.562H624.283V154.356C624.283 155.14 624.409 155.812 624.661 156.372C624.913 156.904 625.319 157.324 625.879 157.632C626.439 157.912 627.167 158.052 628.063 158.052C628.287 158.052 628.539 158.038 628.819 158.01C629.099 157.982 629.365 157.954 629.617 157.926V162C629.225 162.056 628.791 162.112 628.315 162.168C627.839 162.224 627.419 162.252 627.055 162.252Z" fill="black"/>
<path d="M606.933 162V139.278H611.679V162H606.933ZM606.933 136.17V130.71H611.679V136.17H606.933Z" fill="black"/>
<path d="M591.716 162V139.278H596.252V143.856L595.832 143.184C596.336 141.7 597.148 140.636 598.268 139.992C599.388 139.32 600.732 138.984 602.3 138.984H603.686V143.31H601.712C600.144 143.31 598.87 143.8 597.89 144.78C596.938 145.732 596.462 147.104 596.462 148.896V162H591.716Z" fill="black"/>
<path d="M575.156 171.24C573.504 171.24 571.978 170.974 570.578 170.442C569.178 169.91 567.974 169.168 566.966 168.216C565.958 167.292 565.202 166.2 564.698 164.94L569.066 163.134C569.458 164.198 570.172 165.08 571.208 165.78C572.272 166.48 573.574 166.83 575.114 166.83C576.318 166.83 577.396 166.592 578.348 166.116C579.3 165.668 580.056 164.996 580.616 164.1C581.176 163.232 581.456 162.182 581.456 160.95V155.826L582.296 156.792C581.512 158.248 580.42 159.354 579.02 160.11C577.648 160.866 576.094 161.244 574.358 161.244C572.258 161.244 570.368 160.754 568.688 159.774C567.008 158.794 565.678 157.45 564.698 155.742C563.746 154.034 563.27 152.116 563.27 149.988C563.27 147.832 563.746 145.914 564.698 144.234C565.678 142.554 566.994 141.224 568.646 140.244C570.298 139.264 572.188 138.774 574.316 138.774C576.052 138.774 577.592 139.152 578.936 139.908C580.308 140.636 581.428 141.7 582.296 143.1L581.666 144.276V139.278H586.16V160.95C586.16 162.91 585.684 164.66 584.732 166.2C583.808 167.768 582.52 169 580.868 169.896C579.216 170.792 577.312 171.24 575.156 171.24ZM574.904 156.834C576.164 156.834 577.284 156.54 578.264 155.952C579.244 155.336 580.014 154.524 580.574 153.516C581.162 152.48 581.456 151.318 581.456 150.03C581.456 148.742 581.162 147.58 580.574 146.544C579.986 145.508 579.202 144.696 578.222 144.108C577.242 143.492 576.136 143.184 574.904 143.184C573.616 143.184 572.468 143.492 571.46 144.108C570.452 144.696 569.654 145.508 569.066 146.544C568.506 147.552 568.226 148.714 568.226 150.03C568.226 151.29 568.506 152.438 569.066 153.474C569.654 154.51 570.452 155.336 571.46 155.952C572.468 156.54 573.616 156.834 574.904 156.834Z" fill="black"/>
<path d="M549.104 162.504C546.836 162.504 544.82 161.986 543.056 160.95C541.32 159.886 539.962 158.458 538.982 156.666C538.002 154.846 537.512 152.816 537.512 150.576C537.512 148.28 538.002 146.25 538.982 144.486C539.99 142.722 541.334 141.336 543.014 140.328C544.694 139.292 546.598 138.774 548.726 138.774C550.434 138.774 551.96 139.068 553.304 139.656C554.648 140.244 555.782 141.056 556.706 142.092C557.63 143.1 558.33 144.262 558.806 145.578C559.31 146.894 559.562 148.294 559.562 149.778C559.562 150.142 559.548 150.52 559.52 150.912C559.492 151.304 559.436 151.668 559.352 152.004H541.25V148.224H556.664L554.396 149.946C554.676 148.574 554.578 147.356 554.102 146.292C553.654 145.2 552.954 144.346 552.002 143.73C551.078 143.086 549.986 142.764 548.726 142.764C547.466 142.764 546.346 143.086 545.366 143.73C544.386 144.346 543.63 145.242 543.098 146.418C542.566 147.566 542.356 148.966 542.468 150.618C542.328 152.158 542.538 153.502 543.098 154.65C543.686 155.798 544.498 156.694 545.534 157.338C546.598 157.982 547.802 158.304 549.146 158.304C550.518 158.304 551.68 157.996 552.632 157.38C553.612 156.764 554.382 155.966 554.942 154.986L558.806 156.876C558.358 157.94 557.658 158.906 556.706 159.774C555.782 160.614 554.662 161.286 553.346 161.79C552.058 162.266 550.644 162.504 549.104 162.504Z" fill="black"/>
<path d="M531.653 162.252C529.273 162.252 527.425 161.58 526.109 160.236C524.793 158.892 524.135 157.002 524.135 154.566V143.562H520.145V139.278H520.775C521.839 139.278 522.665 138.97 523.253 138.354C523.841 137.738 524.135 136.898 524.135 135.834V134.07H528.881V139.278H534.047V143.562H528.881V154.356C528.881 155.14 529.007 155.812 529.259 156.372C529.511 156.904 529.917 157.324 530.477 157.632C531.037 157.912 531.765 158.052 532.661 158.052C532.885 158.052 533.137 158.038 533.417 158.01C533.697 157.982 533.963 157.954 534.215 157.926V162C533.823 162.056 533.389 162.112 532.913 162.168C532.437 162.224 532.017 162.252 531.653 162.252Z" fill="black"/>
<path d="M497.216 162V139.278H501.752V143.73L501.206 143.142C501.766 141.714 502.662 140.636 503.894 139.908C505.126 139.152 506.554 138.774 508.178 138.774C509.858 138.774 511.342 139.138 512.63 139.866C513.918 140.594 514.926 141.602 515.654 142.89C516.382 144.178 516.746 145.662 516.746 147.342V162H512.042V148.602C512.042 147.454 511.832 146.488 511.412 145.704C510.992 144.892 510.39 144.276 509.606 143.856C508.85 143.408 507.982 143.184 507.002 143.184C506.022 143.184 505.14 143.408 504.356 143.856C503.6 144.276 503.012 144.892 502.592 145.704C502.172 146.516 501.962 147.482 501.962 148.602V162H497.216Z" fill="black"/>
<path d="M486.234 162V130.71H491.19V162H486.234Z" fill="black"/>
</svg>
