<svg width="48" height="48" viewBox="0 0 48 48" fill="none" xmlns="http://www.w3.org/2000/svg">
<path d="M24 26.25C25.2426 26.25 26.25 25.2426 26.25 24C26.25 22.7574 25.2426 21.75 24 21.75C22.7574 21.75 21.75 22.7574 21.75 24C21.75 25.2426 22.7574 26.25 24 26.25Z" fill="#5482FF"/>
<path d="M24 4.5C13.2478 4.5 4.5 13.2478 4.5 24C4.5 34.7522 13.2478 43.5 24 43.5C34.7522 43.5 43.5 34.7522 43.5 24C43.5 13.2478 34.7522 4.5 24 4.5ZM33.8503 15.1247L29.4553 26.1122C29.1535 26.8668 28.7016 27.5522 28.1269 28.1269C27.5522 28.7016 26.8668 29.1535 26.1122 29.4553L15.1247 33.8503C14.9884 33.9049 14.8391 33.9182 14.6953 33.8887C14.5515 33.8592 14.4195 33.7882 14.3156 33.6844C14.2118 33.5805 14.1408 33.4485 14.1113 33.3047C14.0818 33.1609 14.0951 33.0116 14.1497 32.8753L18.5447 21.8878C18.8465 21.1332 19.2984 20.4478 19.8731 19.8731C20.4478 19.2984 21.1332 18.8465 21.8878 18.5447L32.8753 14.1497C33.0116 14.0951 33.1609 14.0818 33.3047 14.1113C33.4485 14.1408 33.5805 14.2118 33.6844 14.3156C33.7882 14.4195 33.8592 14.5515 33.8887 14.6953C33.9182 14.8391 33.9049 14.9884 33.8503 15.1247Z" fill="#5482FF"/>
</svg>
