<svg width="48" height="48" viewBox="0 0 48 48" fill="none" xmlns="http://www.w3.org/2000/svg">
<path d="M11.4124 3.00002C11.3502 2.99944 11.2888 3.01436 11.2338 3.04342C11.1788 3.07247 11.1319 3.11476 11.0973 3.16647C11.0627 3.21818 11.0415 3.27768 11.0356 3.33962C11.0298 3.40155 11.0394 3.46398 11.0637 3.52127L11.2793 4.03033L15.0949 12.9272C15.1208 12.9877 15.1622 13.0403 15.215 13.0798C15.2677 13.1192 15.3298 13.1441 15.3952 13.1519C15.4606 13.1597 15.5269 13.1501 15.5874 13.1242C15.6479 13.0982 15.7005 13.0568 15.7399 13.0041L22.7824 3.60002C22.8242 3.5443 22.8496 3.47805 22.8559 3.40869C22.8622 3.33933 22.849 3.2696 22.8178 3.20731C22.7867 3.14502 22.7388 3.09263 22.6796 3.05602C22.6203 3.01941 22.5521 3.00002 22.4824 3.00002H11.4124Z" fill="#5482FF"/>
<path d="M39.3696 5.44314L35.4996 14.4778C35.4753 14.5349 35.4654 14.597 35.471 14.6588C35.4766 14.7206 35.4974 14.78 35.5316 14.8317C35.5658 14.8835 35.6123 14.9259 35.6669 14.9553C35.7215 14.9847 35.7826 15 35.8446 15H45.3134C45.3802 15 45.4459 14.9822 45.5035 14.9483C45.5611 14.9145 45.6087 14.8658 45.6412 14.8074C45.6737 14.7489 45.69 14.6829 45.6884 14.616C45.6868 14.5492 45.6674 14.484 45.6321 14.4272L40.0324 5.39345C39.9962 5.33529 39.9448 5.28815 39.8837 5.25715C39.8227 5.22614 39.7543 5.21246 39.686 5.21758C39.6177 5.2227 39.5521 5.24643 39.4963 5.28619C39.4405 5.32596 39.3967 5.38024 39.3696 5.44314Z" fill="#5482FF"/>
<path d="M7.96991 5.3972L2.3721 14.4272C2.33683 14.484 2.31739 14.5492 2.31579 14.616C2.31419 14.6829 2.33049 14.7489 2.363 14.8074C2.39551 14.8658 2.44305 14.9145 2.50069 14.9483C2.55834 14.9822 2.62399 15 2.69085 15H12.1596C12.2217 14.9999 12.2827 14.9845 12.3373 14.955C12.3919 14.9255 12.4384 14.8829 12.4725 14.8311C12.5066 14.7792 12.5273 14.7197 12.5327 14.6579C12.5382 14.5961 12.5282 14.5339 12.5037 14.4769L8.62616 5.44689C8.59843 5.38555 8.5547 5.33281 8.49956 5.29419C8.44442 5.25558 8.3799 5.23252 8.31277 5.22744C8.24565 5.22236 8.17839 5.23544 8.11806 5.26531C8.05774 5.29518 8.00656 5.34074 7.96991 5.3972Z" fill="#5482FF"/>
<path d="M25.1093 3.00002C25.0754 2.9998 25.042 3.00908 25.0131 3.02681C24.9842 3.04453 24.9608 3.07001 24.9455 3.10034C24.9303 3.13068 24.9239 3.16466 24.927 3.19846C24.9301 3.23225 24.9426 3.26451 24.963 3.29158L32.4555 13.2722C32.4747 13.2978 32.5002 13.318 32.5296 13.3306C32.559 13.3432 32.5912 13.3478 32.623 13.344C32.6547 13.3402 32.6849 13.3281 32.7105 13.3089C32.7361 13.2897 32.7561 13.2641 32.7687 13.2347L36.7137 4.03127L37.0324 3.24939C37.0436 3.22255 37.0482 3.19339 37.0457 3.16441C37.0432 3.13542 37.0337 3.10747 37.018 3.08296C37.0024 3.05845 36.981 3.03809 36.9557 3.02365C36.9305 3.0092 36.9021 3.00109 36.873 3.00002H25.1093Z" fill="#5482FF"/>
<path d="M22.4074 42L14.0233 18.2353C13.9987 18.1663 13.9533 18.1066 13.8934 18.0645C13.8335 18.0224 13.7619 17.9998 13.6887 18H2.41054C2.3452 17.9998 2.28113 18.018 2.22562 18.0525C2.17011 18.0869 2.1254 18.1363 2.09657 18.1949C2.06775 18.2535 2.05597 18.3191 2.06258 18.3841C2.06919 18.4491 2.09393 18.5109 2.13397 18.5625L22.384 44.7947C22.4525 44.8835 22.5503 44.9451 22.66 44.9686C22.7697 44.9921 22.8841 44.976 22.983 44.9231C23.0825 44.8708 23.1599 44.7844 23.201 44.6798C23.2422 44.5752 23.2443 44.4592 23.2071 44.3531L22.4074 42Z" fill="#5482FF"/>
<path d="M45.5918 18H34.3137C34.2408 18 34.1697 18.0226 34.1102 18.0648C34.0508 18.1069 34.0059 18.1665 33.9818 18.2353L24.7755 44.3128C24.7369 44.4223 24.7385 44.542 24.78 44.6504C24.8216 44.7588 24.9005 44.8488 25.0024 44.9044C25.1044 44.9596 25.2227 44.9768 25.3362 44.953C25.4497 44.9291 25.551 44.8657 25.6221 44.7741L45.8684 18.5625C45.9084 18.5109 45.9331 18.4491 45.9397 18.3841C45.9464 18.3191 45.9346 18.2535 45.9058 18.1949C45.8769 18.1363 45.8322 18.0869 45.7767 18.0525C45.7212 18.018 45.6571 17.9998 45.5918 18Z" fill="#5482FF"/>
<path d="M24.3012 7.3997L29.5512 14.4C29.5929 14.4557 29.6184 14.522 29.6246 14.5913C29.6309 14.6607 29.6177 14.7304 29.5866 14.7927C29.5554 14.855 29.5076 14.9074 29.4483 14.944C29.3891 14.9806 29.3208 15 29.2512 15H18.7512C18.6815 15 18.6133 14.9806 18.554 14.944C18.4948 14.9074 18.4469 14.855 18.4158 14.7927C18.3846 14.7304 18.3714 14.6607 18.3777 14.5913C18.3839 14.522 18.4094 14.4557 18.4512 14.4L23.7012 7.3997C23.7361 7.35313 23.7814 7.31533 23.8335 7.28929C23.8855 7.26326 23.9429 7.2497 24.0012 7.2497C24.0594 7.2497 24.1168 7.26326 24.1689 7.28929C24.2209 7.31533 24.2662 7.35313 24.3012 7.3997ZM23.6449 36.4913L17.298 18.4997C17.2781 18.4432 17.272 18.3827 17.2803 18.3233C17.2885 18.2639 17.3109 18.2074 17.3455 18.1585C17.3802 18.1095 17.426 18.0696 17.4792 18.042C17.5325 18.0145 17.5915 18.0001 17.6515 18H30.3509C30.4108 18.0001 30.4699 18.0145 30.5231 18.042C30.5763 18.0696 30.6222 18.1095 30.6568 18.1585C30.6914 18.2074 30.7138 18.2639 30.722 18.3233C30.7303 18.3827 30.7242 18.4432 30.7043 18.4997L24.3546 36.4913C24.3287 36.5643 24.2808 36.6275 24.2175 36.6722C24.1542 36.7169 24.0787 36.7409 24.0012 36.7409C23.9237 36.7409 23.8481 36.7169 23.7848 36.6722C23.7215 36.6275 23.6736 36.5643 23.6477 36.4913H23.6449Z" fill="#5482FF"/>
</svg>
