<svg width="48" height="48" viewBox="0 0 48 48" fill="none" xmlns="http://www.w3.org/2000/svg">
<path d="M26.2641 22.7616L23.8163 20.3128C23.2556 19.752 22.4957 19.436 21.7026 19.4339C20.9096 19.4318 20.148 19.7437 19.5844 20.3016L2.56595 36.0075C1.94626 36.5916 1.53939 37.3359 1.50189 38.1694C1.48384 38.5827 1.55121 38.9954 1.69976 39.3815C1.84832 39.7677 2.07489 40.1191 2.36532 40.4138L6.02157 44.1103C6.02352 44.1127 6.02572 44.1149 6.02814 44.1169C6.59314 44.68 7.3576 44.9974 8.15532 45H8.26595C9.09939 44.9691 9.84564 44.5781 10.4381 43.9528L26.2538 27.0122C26.5342 26.7341 26.757 26.4035 26.9094 26.0391C27.0617 25.6748 27.1406 25.2839 27.1416 24.889C27.1426 24.4941 27.0655 24.1029 26.9149 23.7378C26.7644 23.3727 26.5432 23.041 26.2641 22.7616Z" fill="#5482FF"/>
<path d="M45.9366 17.8125L45.9075 17.7834L42.6947 14.6034C42.5065 14.4159 42.283 14.2674 42.0372 14.1667C41.7913 14.066 41.5279 14.0149 41.2622 14.0166C40.8317 14.017 40.4122 14.1528 40.0631 14.4047C40.0631 14.3644 40.0688 14.325 40.0716 14.2903C40.1138 13.6809 40.1794 12.7603 39.5841 11.9259C38.8763 10.9719 38.0992 10.0714 37.2591 9.23157C37.2568 9.22884 37.2543 9.22632 37.2516 9.22407C36.0028 7.99407 33.285 5.6775 29.1216 3.97969C27.5426 3.33166 25.8521 2.99884 24.1453 3C21.1866 3 18.9366 4.335 18.075 5.12625C17.5872 5.59222 17.1422 6.10114 16.7456 6.64688C16.5562 6.90841 16.4562 7.22412 16.4605 7.54705C16.4648 7.86997 16.5733 8.18288 16.7697 8.43924C16.9661 8.69559 17.24 8.88171 17.5507 8.9699C17.8614 9.0581 18.1923 9.04367 18.4941 8.92875C18.757 8.83047 19.0256 8.74813 19.2984 8.68219C19.8667 8.56202 20.4494 8.5257 21.0281 8.57438C22.2647 8.67657 23.7272 9.29063 24.3741 9.80157C25.4709 10.6838 25.9988 11.8725 26.0859 13.6538C26.1028 14.0119 25.3622 15.3544 24.2109 16.8863C23.9916 17.1753 23.8846 17.5341 23.9096 17.8961C23.9346 18.2581 24.0899 18.5988 24.3469 18.855L27.5728 22.0809C27.8439 22.3527 28.2088 22.5101 28.5925 22.521C28.9762 22.5318 29.3494 22.3951 29.6353 22.1391C30.5475 21.3244 31.9369 20.0963 32.4225 19.7953C33.1434 19.3519 33.6591 19.2666 33.8006 19.2516C34.168 19.2155 34.5375 19.2934 34.8591 19.4747C34.8607 19.4907 34.8589 19.5069 34.8539 19.5223C34.8489 19.5376 34.8408 19.5517 34.83 19.5638L34.6594 19.7259L34.6313 19.7522C34.4427 19.94 34.2932 20.1633 34.1914 20.4092C34.0895 20.655 34.0373 20.9186 34.0377 21.1847C34.0381 21.4509 34.0912 21.7143 34.1939 21.9598C34.2966 22.2053 34.4468 22.4281 34.6359 22.6153L37.8478 25.7944C38.0361 25.9818 38.2596 26.1301 38.5054 26.2307C38.7513 26.3313 39.0147 26.3821 39.2803 26.3803C39.8138 26.3811 40.3262 26.1724 40.7072 25.7991L45.9103 20.6597C45.9281 20.6419 45.9459 20.6231 45.9628 20.6044C46.3119 20.2217 46.5032 19.7212 46.4983 19.2033C46.4935 18.6854 46.2928 18.1885 45.9366 17.8125Z" fill="#5482FF"/>
</svg>
