<svg width="48" height="48" viewBox="0 0 48 48" fill="none" xmlns="http://www.w3.org/2000/svg">
<path fill-rule="evenodd" clip-rule="evenodd" d="M24.6173 3.13295C24.2248 2.95568 23.7751 2.95568 23.3826 3.13295C15.9249 6.50094 12.5772 7.577 4.31948 9.05825C3.63953 9.18022 3.1308 9.7508 3.0873 10.4402C1.50199 35.5665 21.8928 44.2685 23.4396 44.8914C23.7991 45.0362 24.2008 45.0362 24.5603 44.8914C26.1071 44.2685 46.4979 35.5665 44.9126 10.4402C44.8691 9.7508 44.3604 9.18022 43.6804 9.05825C35.4227 7.577 32.075 6.50094 24.6173 3.13295ZM24 41.8669C20.657 40.3508 5.31697 32.2618 6.02424 11.7968C13.4866 10.4115 17.096 9.23828 24 6.14481V41.8669Z" fill="#5482FF"/>
</svg>
