<svg width="48" height="48" viewBox="0 0 48 48" fill="none" xmlns="http://www.w3.org/2000/svg">
<path d="M40.5 16.5H30V6C30 4.80653 29.5259 3.66193 28.682 2.81802C27.8381 1.97411 26.6935 1.5 25.5 1.5H7.5C6.30653 1.5 5.16193 1.97411 4.31802 2.81802C3.47411 3.66193 3 4.80653 3 6V45C3 45.3978 3.15804 45.7794 3.43934 46.0607C3.72064 46.342 4.10218 46.5 4.5 46.5H14.25C14.4489 46.5 14.6397 46.421 14.7803 46.2803C14.921 46.1397 15 45.9489 15 45.75V39.0422C15 38.235 15.6206 37.5422 16.4278 37.5019C16.6306 37.4921 16.8333 37.5236 17.0236 37.5945C17.2139 37.6654 17.3878 37.7741 17.5348 37.9142C17.6818 38.0543 17.7988 38.2227 17.8788 38.4094C17.9587 38.596 18 38.797 18 39V45.75C18 45.9489 18.079 46.1397 18.2197 46.2803C18.3603 46.421 18.5511 46.5 18.75 46.5H43.5C43.8978 46.5 44.2794 46.342 44.5607 46.0607C44.842 45.7794 45 45.3978 45 45V21C45 19.8065 44.5259 18.6619 43.682 17.818C42.8381 16.9741 41.6935 16.5 40.5 16.5ZM9.195 40.4878C8.88434 40.5284 8.56875 40.4708 8.29254 40.3229C8.01632 40.175 7.79334 39.9444 7.65489 39.6633C7.51644 39.3823 7.46946 39.0649 7.52057 38.7558C7.57167 38.4467 7.71828 38.1614 7.93982 37.9398C8.16136 37.7183 8.44671 37.5717 8.75582 37.5206C9.06493 37.4695 9.38228 37.5164 9.66334 37.6549C9.94439 37.7933 10.175 38.0163 10.3229 38.2925C10.4708 38.5688 10.5284 38.8843 10.4878 39.195C10.4449 39.5228 10.2949 39.8273 10.0611 40.0611C9.82734 40.2949 9.52285 40.4449 9.195 40.4878ZM9.195 32.9878C8.88434 33.0284 8.56875 32.9708 8.29254 32.8229C8.01632 32.675 7.79334 32.4444 7.65489 32.1633C7.51644 31.8823 7.46946 31.5649 7.52057 31.2558C7.57167 30.9467 7.71828 30.6614 7.93982 30.4398C8.16136 30.2183 8.44671 30.0717 8.75582 30.0206C9.06493 29.9695 9.38228 30.0164 9.66334 30.1549C9.94439 30.2933 10.175 30.5163 10.3229 30.7925C10.4708 31.0688 10.5284 31.3843 10.4878 31.695C10.4449 32.0228 10.2949 32.3273 10.0611 32.5611C9.82734 32.7949 9.52285 32.9449 9.195 32.9878ZM9.195 25.4878C8.88434 25.5284 8.56875 25.4708 8.29254 25.3229C8.01632 25.175 7.79334 24.9444 7.65489 24.6633C7.51644 24.3823 7.46946 24.0649 7.52057 23.7558C7.57167 23.4467 7.71828 23.1614 7.93982 22.9398C8.16136 22.7183 8.44671 22.5717 8.75582 22.5206C9.06493 22.4695 9.38228 22.5164 9.66334 22.6549C9.94439 22.7933 10.175 23.0163 10.3229 23.2925C10.4708 23.5688 10.5284 23.8843 10.4878 24.195C10.4449 24.5228 10.2949 24.8273 10.0611 25.0611C9.82734 25.2949 9.52285 25.4449 9.195 25.4878ZM9.195 17.9878C8.88434 18.0284 8.56875 17.9708 8.29254 17.8229C8.01632 17.675 7.79334 17.4444 7.65489 17.1633C7.51644 16.8823 7.46946 16.5649 7.52057 16.2558C7.57167 15.9467 7.71828 15.6614 7.93982 15.4398C8.16136 15.2183 8.44671 15.0717 8.75582 15.0206C9.06493 14.9695 9.38228 15.0164 9.66334 15.1549C9.94439 15.2933 10.175 15.5163 10.3229 15.7925C10.4708 16.0688 10.5284 16.3843 10.4878 16.695C10.4449 17.0228 10.2949 17.3273 10.0611 17.5611C9.82734 17.7949 9.52285 17.9449 9.195 17.9878ZM9.195 10.4878C8.88434 10.5284 8.56875 10.4708 8.29254 10.3229C8.01632 10.175 7.79334 9.94439 7.65489 9.66334C7.51644 9.38228 7.46946 9.06493 7.52057 8.75582C7.57167 8.44671 7.71828 8.16136 7.93982 7.93982C8.16136 7.71828 8.44671 7.57167 8.75582 7.52057C9.06493 7.46946 9.38228 7.51644 9.66334 7.65489C9.94439 7.79334 10.175 8.01632 10.3229 8.29254C10.4708 8.56875 10.5284 8.88434 10.4878 9.195C10.4449 9.52285 10.2949 9.82734 10.0611 10.0611C9.82734 10.2949 9.52285 10.4449 9.195 10.4878ZM16.695 32.9878C16.3843 33.0284 16.0688 32.9708 15.7925 32.8229C15.5163 32.675 15.2933 32.4444 15.1549 32.1633C15.0164 31.8823 14.9695 31.5649 15.0206 31.2558C15.0717 30.9467 15.2183 30.6614 15.4398 30.4398C15.6614 30.2183 15.9467 30.0717 16.2558 30.0206C16.5649 29.9695 16.8823 30.0164 17.1633 30.1549C17.4444 30.2933 17.675 30.5163 17.8229 30.7925C17.9708 31.0688 18.0284 31.3843 17.9878 31.695C17.9449 32.0228 17.7949 32.3273 17.5611 32.5611C17.3273 32.7949 17.0228 32.9449 16.695 32.9878ZM16.695 25.4878C16.3843 25.5284 16.0688 25.4708 15.7925 25.3229C15.5163 25.175 15.2933 24.9444 15.1549 24.6633C15.0164 24.3823 14.9695 24.0649 15.0206 23.7558C15.0717 23.4467 15.2183 23.1614 15.4398 22.9398C15.6614 22.7183 15.9467 22.5717 16.2558 22.5206C16.5649 22.4695 16.8823 22.5164 17.1633 22.6549C17.4444 22.7933 17.675 23.0163 17.8229 23.2925C17.9708 23.5688 18.0284 23.8843 17.9878 24.195C17.9449 24.5228 17.7949 24.8273 17.5611 25.0611C17.3273 25.2949 17.0228 25.4449 16.695 25.4878ZM16.695 17.9878C16.3843 18.0284 16.0688 17.9708 15.7925 17.8229C15.5163 17.675 15.2933 17.4444 15.1549 17.1633C15.0164 16.8823 14.9695 16.5649 15.0206 16.2558C15.0717 15.9467 15.2183 15.6614 15.4398 15.4398C15.6614 15.2183 15.9467 15.0717 16.2558 15.0206C16.5649 14.9695 16.8823 15.0164 17.1633 15.1549C17.4444 15.2933 17.675 15.5163 17.8229 15.7925C17.9708 16.0688 18.0284 16.3843 17.9878 16.695C17.9449 17.0228 17.7949 17.3273 17.5611 17.5611C17.3273 17.7949 17.0228 17.9449 16.695 17.9878ZM16.695 10.4878C16.3843 10.5284 16.0688 10.4708 15.7925 10.3229C15.5163 10.175 15.2933 9.94439 15.1549 9.66334C15.0164 9.38228 14.9695 9.06493 15.0206 8.75582C15.0717 8.44671 15.2183 8.16136 15.4398 7.93982C15.6614 7.71828 15.9467 7.57167 16.2558 7.52057C16.5649 7.46946 16.8823 7.51644 17.1633 7.65489C17.4444 7.79334 17.675 8.01632 17.8229 8.29254C17.9708 8.56875 18.0284 8.88434 17.9878 9.195C17.9449 9.52285 17.7949 9.82734 17.5611 10.0611C17.3273 10.2949 17.0228 10.4449 16.695 10.4878ZM24.195 40.4878C23.8843 40.5284 23.5688 40.4708 23.2925 40.3229C23.0163 40.175 22.7933 39.9444 22.6549 39.6633C22.5164 39.3823 22.4695 39.0649 22.5206 38.7558C22.5717 38.4467 22.7183 38.1614 22.9398 37.9398C23.1614 37.7183 23.4467 37.5717 23.7558 37.5206C24.0649 37.4695 24.3823 37.5164 24.6633 37.6549C24.9444 37.7933 25.175 38.0163 25.3229 38.2925C25.4708 38.5688 25.5284 38.8843 25.4878 39.195C25.4449 39.5228 25.2949 39.8273 25.0611 40.0611C24.8273 40.2949 24.5228 40.4449 24.195 40.4878ZM24.195 32.9878C23.8843 33.0284 23.5688 32.9708 23.2925 32.8229C23.0163 32.675 22.7933 32.4444 22.6549 32.1633C22.5164 31.8823 22.4695 31.5649 22.5206 31.2558C22.5717 30.9467 22.7183 30.6614 22.9398 30.4398C23.1614 30.2183 23.4467 30.0717 23.7558 30.0206C24.0649 29.9695 24.3823 30.0164 24.6633 30.1549C24.9444 30.2933 25.175 30.5163 25.3229 30.7925C25.4708 31.0688 25.5284 31.3843 25.4878 31.695C25.4449 32.0228 25.2949 32.3273 25.0611 32.5611C24.8273 32.7949 24.5228 32.9449 24.195 32.9878ZM24.195 25.4878C23.8843 25.5284 23.5688 25.4708 23.2925 25.3229C23.0163 25.175 22.7933 24.9444 22.6549 24.6633C22.5164 24.3823 22.4695 24.0649 22.5206 23.7558C22.5717 23.4467 22.7183 23.1614 22.9398 22.9398C23.1614 22.7183 23.4467 22.5717 23.7558 22.5206C24.0649 22.4695 24.3823 22.5164 24.6633 22.6549C24.9444 22.7933 25.175 23.0163 25.3229 23.2925C25.4708 23.5688 25.5284 23.8843 25.4878 24.195C25.4449 24.5228 25.2949 24.8273 25.0611 25.0611C24.8273 25.2949 24.5228 25.4449 24.195 25.4878ZM24.195 17.9878C23.8843 18.0284 23.5688 17.9708 23.2925 17.8229C23.0163 17.675 22.7933 17.4444 22.6549 17.1633C22.5164 16.8823 22.4695 16.5649 22.5206 16.2558C22.5717 15.9467 22.7183 15.6614 22.9398 15.4398C23.1614 15.2183 23.4467 15.0717 23.7558 15.0206C24.0649 14.9695 24.3823 15.0164 24.6633 15.1549C24.9444 15.2933 25.175 15.5163 25.3229 15.7925C25.4708 16.0688 25.5284 16.3843 25.4878 16.695C25.4449 17.0228 25.2949 17.3273 25.0611 17.5611C24.8273 17.7949 24.5228 17.9449 24.195 17.9878ZM24.195 10.4878C23.8843 10.5284 23.5688 10.4708 23.2925 10.3229C23.0163 10.175 22.7933 9.94439 22.6549 9.66334C22.5164 9.38228 22.4695 9.06493 22.5206 8.75582C22.5717 8.44671 22.7183 8.16136 22.9398 7.93982C23.1614 7.71828 23.4467 7.57167 23.7558 7.52057C24.0649 7.46946 24.3823 7.51644 24.6633 7.65489C24.9444 7.79334 25.175 8.01632 25.3229 8.29254C25.4708 8.56875 25.5284 8.88434 25.4878 9.195C25.4449 9.52285 25.2949 9.82734 25.0611 10.0611C24.8273 10.2949 24.5228 10.4449 24.195 10.4878ZM41.625 43.5H30V19.5H40.5C40.8978 19.5 41.2794 19.658 41.5607 19.9393C41.842 20.2206 42 20.6022 42 21V43.125C42 43.2245 41.9605 43.3198 41.8902 43.3902C41.8198 43.4605 41.7245 43.5 41.625 43.5Z" fill="#7B8591"/>
<path d="M37.5 37.5C37.2033 37.5 36.9133 37.588 36.6666 37.7528C36.42 37.9176 36.2277 38.1519 36.1142 38.426C36.0006 38.7001 35.9709 39.0017 36.0288 39.2926C36.0867 39.5836 36.2296 39.8509 36.4393 40.0607C36.6491 40.2704 36.9164 40.4133 37.2074 40.4712C37.4983 40.5291 37.7999 40.4994 38.074 40.3858C38.3481 40.2723 38.5824 40.08 38.7472 39.8334C38.912 39.5867 39 39.2967 39 39C39 38.6022 38.842 38.2206 38.5607 37.9393C38.2794 37.658 37.8978 37.5 37.5 37.5Z" fill="#7B8591"/>
<path d="M37.5 30C37.2033 30 36.9133 30.088 36.6666 30.2528C36.42 30.4176 36.2277 30.6519 36.1142 30.926C36.0006 31.2001 35.9709 31.5017 36.0288 31.7926C36.0867 32.0836 36.2296 32.3509 36.4393 32.5607C36.6491 32.7704 36.9164 32.9133 37.2074 32.9712C37.4983 33.0291 37.7999 32.9994 38.074 32.8858C38.3481 32.7723 38.5824 32.58 38.7472 32.3334C38.912 32.0867 39 31.7967 39 31.5C39 31.1022 38.842 30.7206 38.5607 30.4393C38.2794 30.158 37.8978 30 37.5 30Z" fill="#7B8591"/>
<path d="M37.5 22.5C37.2033 22.5 36.9133 22.588 36.6666 22.7528C36.42 22.9176 36.2277 23.1519 36.1142 23.426C36.0006 23.7001 35.9709 24.0017 36.0288 24.2926C36.0867 24.5836 36.2296 24.8509 36.4393 25.0607C36.6491 25.2704 36.9164 25.4133 37.2074 25.4712C37.4983 25.5291 37.7999 25.4994 38.074 25.3858C38.3481 25.2723 38.5824 25.08 38.7472 24.8334C38.912 24.5867 39 24.2967 39 24C39 23.6022 38.842 23.2206 38.5607 22.9393C38.2794 22.658 37.8978 22.5 37.5 22.5Z" fill="#7B8591"/>
<path d="M31.5 37.5C31.2033 37.5 30.9133 37.588 30.6666 37.7528C30.42 37.9176 30.2277 38.1519 30.1142 38.426C30.0006 38.7001 29.9709 39.0017 30.0288 39.2926C30.0867 39.5836 30.2296 39.8509 30.4393 40.0607C30.6491 40.2704 30.9164 40.4133 31.2074 40.4712C31.4983 40.5291 31.7999 40.4994 32.074 40.3858C32.3481 40.2723 32.5824 40.08 32.7472 39.8334C32.912 39.5867 33 39.2967 33 39C33 38.6022 32.842 38.2206 32.5607 37.9393C32.2794 37.658 31.8978 37.5 31.5 37.5Z" fill="#7B8591"/>
<path d="M31.5 30C31.2033 30 30.9133 30.088 30.6666 30.2528C30.42 30.4176 30.2277 30.6519 30.1142 30.926C30.0006 31.2001 29.9709 31.5017 30.0288 31.7926C30.0867 32.0836 30.2296 32.3509 30.4393 32.5607C30.6491 32.7704 30.9164 32.9133 31.2074 32.9712C31.4983 33.0291 31.7999 32.9994 32.074 32.8858C32.3481 32.7723 32.5824 32.58 32.7472 32.3334C32.912 32.0867 33 31.7967 33 31.5C33 31.1022 32.842 30.7206 32.5607 30.4393C32.2794 30.158 31.8978 30 31.5 30Z" fill="#7B8591"/>
<path d="M31.5 22.5C31.2033 22.5 30.9133 22.588 30.6666 22.7528C30.42 22.9176 30.2277 23.1519 30.1142 23.426C30.0006 23.7001 29.9709 24.0017 30.0288 24.2926C30.0867 24.5836 30.2296 24.8509 30.4393 25.0607C30.6491 25.2704 30.9164 25.4133 31.2074 25.4712C31.4983 25.5291 31.7999 25.4994 32.074 25.3858C32.3481 25.2723 32.5824 25.08 32.7472 24.8334C32.912 24.5867 33 24.2967 33 24C33 23.6022 32.842 23.2206 32.5607 22.9393C32.2794 22.658 31.8978 22.5 31.5 22.5Z" fill="#7B8591"/>
</svg>
