<svg width="48" height="48" viewBox="0 0 48 48" fill="none" xmlns="http://www.w3.org/2000/svg">
<path d="M30.8301 14.6998C30.2512 14.7001 29.6903 14.9012 29.2431 15.2686C28.7958 15.6361 28.4897 16.1473 28.3771 16.7151C28.2644 17.2829 28.3522 17.8722 28.6253 18.3826C28.8984 18.893 29.3401 19.2929 29.875 19.5142C30.4099 19.7355 31.005 19.7644 31.5589 19.5961C32.1127 19.4278 32.5911 19.0727 32.9125 18.5913C33.2339 18.1098 33.3785 17.5318 33.3215 16.9557C33.2645 16.3797 33.0096 15.8412 32.6001 15.432C32.3679 15.1993 32.0919 15.0149 31.7882 14.8892C31.4844 14.7635 31.1588 14.6992 30.8301 14.6998Z" fill="#7B8591"/>
<path d="M44.7604 4.69389C44.7599 4.69109 44.7599 4.68825 44.7604 4.68545C44.6811 4.33794 44.5063 4.01949 44.2557 3.76604C44.005 3.51259 43.6886 3.33423 43.3419 3.25108C40.5482 2.56951 36.1532 3.29608 31.2829 5.24608C26.3741 7.21483 21.7748 10.1211 18.666 13.2355C17.6696 14.2266 16.7439 15.2864 15.8957 16.407C13.8023 16.3133 11.9582 16.6114 10.4048 17.2892C4.99164 19.6714 3.4457 25.768 3.03414 28.2711C2.97458 28.6267 2.9979 28.9913 3.10228 29.3365C3.20665 29.6817 3.38927 29.9981 3.63592 30.2612C3.88257 30.5243 4.1866 30.7269 4.52435 30.8533C4.86209 30.9796 5.22444 31.0264 5.5832 30.9898H5.59539L11.6254 30.3317C11.6329 30.4086 11.6413 30.4789 11.6479 30.5436C11.7253 31.2784 12.053 31.9642 12.576 32.4861L15.5188 35.4308C16.0399 35.9545 16.7256 36.2826 17.4604 36.3598L17.6619 36.3814L17.0057 42.4039C17.0057 42.4039 17.0057 42.4114 17.0057 42.4161C16.9722 42.7404 17.0067 43.0682 17.107 43.3785C17.2074 43.6887 17.3714 43.9746 17.5885 44.2179C17.8057 44.4612 18.0712 44.6564 18.3681 44.7912C18.665 44.926 18.9868 44.9974 19.3129 45.0008C19.4432 45.0009 19.5734 44.9902 19.7019 44.9689C22.2191 44.5639 28.3129 43.0367 30.6885 37.5945C31.3607 36.0514 31.6579 34.2148 31.5744 32.1251C32.7001 31.2788 33.7638 30.353 34.7573 29.3548C37.8913 26.2367 40.8069 21.6748 42.7551 16.8373C44.6948 12.0223 45.4251 7.59451 44.7604 4.69389ZM34.7235 21.0889C33.9532 21.86 32.9715 22.3853 31.9025 22.5984C30.8336 22.8114 29.7255 22.7027 28.7184 22.2858C27.7113 21.869 26.8505 21.1628 26.2448 20.2566C25.6391 19.3504 25.3159 18.2849 25.3159 17.195C25.3159 16.105 25.6391 15.0396 26.2448 14.1334C26.8505 13.2272 27.7113 12.521 28.7184 12.1041C29.7255 11.6873 30.8336 11.5785 31.9025 11.7916C32.9715 12.0046 33.9532 12.53 34.7235 13.3011C35.2398 13.8096 35.6498 14.4158 35.9297 15.0843C36.2096 15.7528 36.3537 16.4703 36.3537 17.195C36.3537 17.9197 36.2096 18.6372 35.9297 19.3057C35.6498 19.9742 35.2398 20.5803 34.7235 21.0889Z" fill="#7B8591"/>
<path d="M15.1813 36.2295C14.8186 36.1845 14.4518 36.2735 14.1501 36.4798C13.551 36.8895 12.9491 37.2945 12.3416 37.6892C11.1126 38.4879 9.64257 37.0854 10.3729 35.8142L11.5119 33.8455C11.6748 33.6072 11.7655 33.3271 11.7731 33.0386C11.7807 32.7502 11.705 32.4656 11.555 32.2191C11.405 31.9726 11.187 31.7746 10.9273 31.6489C10.6676 31.5231 10.3771 31.4749 10.0907 31.5101C8.82648 31.67 7.65135 32.2459 6.75039 33.147C6.40726 33.4911 5.36382 34.5354 4.80226 38.5151C4.64242 39.6582 4.54166 40.8088 4.50039 41.9623C4.49525 42.1625 4.53026 42.3617 4.60334 42.5482C4.67642 42.7346 4.7861 42.9045 4.9259 43.0479C5.0657 43.1913 5.2328 43.3052 5.41734 43.383C5.60188 43.4608 5.80013 43.5008 6.00039 43.5008H6.03789C7.19226 43.4599 8.34378 43.3598 9.48789 43.2008C13.4694 42.6383 14.5138 41.5939 14.8569 41.2508C15.7623 40.3494 16.3367 39.1688 16.4873 37.9001C16.5355 37.5055 16.425 37.1078 16.1801 36.7945C15.9352 36.4812 15.576 36.278 15.1813 36.2295Z" fill="#7B8591"/>
</svg>
