<svg width="48" height="48" viewBox="0 0 48 48" fill="none" xmlns="http://www.w3.org/2000/svg">
<path d="M45.0001 42H43.8751C43.7757 42 43.6803 41.9605 43.61 41.8902C43.5396 41.8198 43.5001 41.7245 43.5001 41.625V25.6416C43.501 25.5819 43.4876 25.5229 43.4611 25.4695C43.4345 25.416 43.3956 25.3697 43.3476 25.3343C43.2995 25.2989 43.2437 25.2755 43.1848 25.266C43.1259 25.2565 43.0656 25.2612 43.0089 25.2797C42.1486 25.5501 41.2552 25.7008 40.3539 25.7278C40.2433 25.7278 40.1383 25.7325 40.0351 25.7325C38.3014 25.7366 36.5956 25.2963 35.0804 24.4538C34.9658 24.39 34.8367 24.3565 34.7054 24.3565C34.5742 24.3565 34.4451 24.39 34.3304 24.4538C32.8156 25.2963 31.1101 25.7366 29.3767 25.7325C27.653 25.7349 25.9583 25.2894 24.4586 24.4397C24.3429 24.3742 24.2123 24.3398 24.0794 24.3398C23.9464 24.3398 23.8158 24.3742 23.7001 24.4397C22.1779 25.2926 20.4613 25.7383 18.7164 25.7334C16.9811 25.7346 15.2757 25.2821 13.7692 24.4209C13.6526 24.3546 13.5208 24.3197 13.3867 24.3197C13.2526 24.3197 13.1208 24.3546 13.0042 24.4209C11.4977 25.2821 9.79228 25.7346 8.05701 25.7334C7.95482 25.7334 7.8517 25.7334 7.74107 25.7288H7.73545C6.80244 25.7008 5.87817 25.5401 4.99045 25.2516C4.93423 25.2334 4.87451 25.2288 4.81617 25.2381C4.75783 25.2473 4.7025 25.2703 4.65471 25.305C4.60691 25.3397 4.568 25.3853 4.54113 25.4379C4.51427 25.4905 4.50022 25.5487 4.50013 25.6078V41.625C4.50013 41.7245 4.46062 41.8198 4.3903 41.8902C4.31997 41.9605 4.22459 42 4.12513 42H3.04701C2.23701 42 1.53763 42.6225 1.50201 43.4325C1.49289 43.6349 1.52488 43.8371 1.59605 44.0268C1.66722 44.2166 1.7761 44.3899 1.9161 44.5364C2.05611 44.6829 2.22435 44.7995 2.41066 44.8792C2.59697 44.9588 2.7975 45 3.00013 45H44.9533C45.7633 45 46.4626 44.3775 46.4983 43.5675C46.5074 43.3651 46.4754 43.1629 46.4042 42.9732C46.333 42.7834 46.2242 42.6101 46.0842 42.4636C45.9442 42.3171 45.7759 42.2005 45.5896 42.1208C45.4033 42.0412 45.2028 42 45.0001 42ZM21.0001 35.625C21.0001 35.7245 20.9606 35.8198 20.8903 35.8902C20.82 35.9605 20.7246 36 20.6251 36H12.3751C12.2757 36 12.1803 35.9605 12.11 35.8902C12.0396 35.8198 12.0001 35.7245 12.0001 35.625V29.625C12.0001 29.3266 12.1187 29.0405 12.3296 28.8295C12.5406 28.6185 12.8268 28.5 13.1251 28.5H19.8751C20.1735 28.5 20.4596 28.6185 20.6706 28.8295C20.8816 29.0405 21.0001 29.3266 21.0001 29.625V35.625ZM35.6251 42H28.8751C28.7757 42 28.6803 41.9605 28.61 41.8902C28.5396 41.8198 28.5001 41.7245 28.5001 41.625V29.625C28.5001 29.3266 28.6187 29.0405 28.8296 28.8295C29.0406 28.6185 29.3268 28.5 29.6251 28.5H34.8751C35.1735 28.5 35.4597 28.6185 35.6706 28.8295C35.8816 29.0405 36.0001 29.3266 36.0001 29.625V41.625C36.0001 41.7245 35.9606 41.8198 35.8903 41.8902C35.82 41.9605 35.7246 42 35.6251 42Z" fill="#7B8591"/>
<path d="M46.1786 15.9637L42.1548 6.73031C41.1011 4.46438 38.6945 3 36.0236 3H11.972C9.30107 3 6.89451 4.46438 5.84076 6.73031L1.81701 15.9637C0.973258 17.7834 2.08795 19.6519 2.08888 19.6528L2.11513 19.695C2.16107 19.7681 2.24263 19.8825 2.29232 19.9556C2.29701 19.9613 2.30076 19.9678 2.30545 19.9744L2.7742 20.5416C2.79172 20.563 2.81051 20.5833 2.83045 20.6025L3.2992 21.0553L3.33857 21.0891C3.61385 21.325 3.90831 21.5376 4.21888 21.7247V21.7294C5.23917 22.3474 6.40159 22.692 7.59388 22.7297C7.67076 22.7297 7.74763 22.7297 7.82545 22.7297C9.62945 22.733 11.3677 22.0527 12.6901 20.8256L12.7211 20.7966C12.8592 20.6664 13.0418 20.594 13.2315 20.594C13.4213 20.594 13.6039 20.6664 13.742 20.7966L13.7729 20.8256C15.1094 22.0506 16.8566 22.7301 18.6695 22.7301C20.4825 22.7301 22.2296 22.0506 23.5661 20.8256C23.7047 20.6973 23.8867 20.626 24.0756 20.626C24.2645 20.626 24.4465 20.6973 24.5851 20.8256C25.9177 22.0467 27.6584 22.7259 29.4658 22.7299C31.2732 22.7339 33.0169 22.0624 34.3548 20.8472C34.4914 20.7207 34.6707 20.6504 34.8568 20.6504C35.043 20.6504 35.2223 20.7207 35.3589 20.8472C36.6982 22.0698 38.4495 22.7421 40.2629 22.7297H40.4964C41.6587 22.6863 42.7897 22.3405 43.7776 21.7266C43.8667 21.6731 43.952 21.6169 44.0383 21.5606C44.7046 21.1114 45.2845 20.5458 45.7501 19.8909L45.9133 19.6444C45.9295 19.6194 45.9445 19.5931 45.9583 19.5656C46.1139 19.2487 46.9483 17.6194 46.1786 15.9637Z" fill="#7B8591"/>
</svg>
