<svg width="35" height="35" viewBox="0 0 35 35" fill="none" xmlns="http://www.w3.org/2000/svg">
<circle opacity="0.1" cx="17.5" cy="17.5" r="17.5" fill="#0145FE"/>
<path d="M24.2075 10.2441H12.5002C11.4904 10.2441 10.6709 11.0637 10.6709 12.0734V23.7807C10.6709 24.7905 11.4904 25.61 12.5002 25.61H24.2075C25.2172 25.61 26.0368 24.7905 26.0368 23.7807V12.0734C26.0368 11.0637 25.2172 10.2441 24.2075 10.2441ZM15.427 16.0978V23.049H13.2319V16.0978H15.427ZM13.2319 14.0746C13.2319 13.5624 13.6709 13.171 14.3294 13.171C14.988 13.171 15.4014 13.5624 15.427 14.0746C15.427 14.5868 15.0172 15.0002 14.3294 15.0002C13.6709 15.0002 13.2319 14.5868 13.2319 14.0746ZM23.4758 23.049H21.2807C21.2807 23.049 21.2807 19.6612 21.2807 19.3905C21.2807 18.6588 20.9148 17.9271 20.0002 17.9124H19.9709C19.0855 17.9124 18.7197 18.6661 18.7197 19.3905C18.7197 19.7234 18.7197 23.049 18.7197 23.049H16.5246V16.0978H18.7197V17.0344C18.7197 17.0344 19.4258 16.0978 20.8453 16.0978C22.2977 16.0978 23.4758 17.0966 23.4758 19.1198V23.049Z" fill="#0145FE"/>
</svg>
